<svg xmlns="http://www.w3.org/2000/svg" width="23.456" height="25.945" viewBox="0 0 23.456 25.945">
  <g id="Layer_2" data-name="Layer 2" transform="translate(-1 -0.992)">
    <g id="Layer_1" data-name="Layer 1" transform="translate(1 0.992)">
      <path id="Path_41" data-name="Path 41" d="M23.27,7.26a8.525,8.525,0,0,1-.845,5.926A5.413,5.413,0,0,1,18.9,15.651a22.627,22.627,0,0,1-3.27.55,3.962,3.962,0,0,1,.629.817,4.593,4.593,0,0,1,.517,2.191c0,1.861.009,3.722-.018,5.582a1.077,1.077,0,0,0,.633,1.145H7.727a1.043,1.043,0,0,0,.619-1.113c-.024-1.214-.019-2.428-.013-3.642,0-.247-.057-.295-.311-.257a6.769,6.769,0,0,1-3.966-.373,2.819,2.819,0,0,1-1.493-1.635,6.7,6.7,0,0,0-.89-1.635,3.011,3.011,0,0,0-.993-.912,1.821,1.821,0,0,1-.559-.49c-.209-.263-.146-.422.175-.508a1.671,1.671,0,0,1,.9.052,3.583,3.583,0,0,1,2.215,1.731,3.34,3.34,0,0,0,2.238,1.731,4.331,4.331,0,0,0,2.556-.311c.141-.057.168-.165.189-.293a3.8,3.8,0,0,1,1.033-2.069c-.681-.1-1.336-.183-1.986-.289a8.941,8.941,0,0,1-2.494-.749,4.905,4.905,0,0,1-2.539-2.753,9.794,9.794,0,0,1-.469-5.182A4.66,4.66,0,0,1,3.2,4.91a.484.484,0,0,0,.109-.539A6.571,6.571,0,0,1,3.5.235.332.332,0,0,1,3.835,0,2.975,2.975,0,0,1,4.969.178,12.962,12.962,0,0,1,8.041,1.75a.522.522,0,0,0,.465.087,15.86,15.86,0,0,1,8.1,0,.516.516,0,0,0,.464-.1A12.522,12.522,0,0,1,20.173.16a2.911,2.911,0,0,1,1.035-.168.379.379,0,0,1,.4.285,6.51,6.51,0,0,1,.14,4.2.33.33,0,0,0,.106.379A5.119,5.119,0,0,1,23.27,7.26ZM8.195,19.323c.021-.21-.168-.25-.326-.251a.347.347,0,0,0-.392.292c-.021.183.127.24.332.249C7.959,19.588,8.174,19.56,8.195,19.323ZM6.9,19.515c.016-.226-.177-.262-.352-.262s-.365.025-.38.242c-.016.235.172.253.341.254C6.7,19.746,6.885,19.731,6.9,19.515Zm-1.66.045c.145,0,.284-.061.263-.235-.029-.237-.225-.281-.409-.305-.166.02-.334.057-.313.245C4.81,19.522,5.035,19.554,5.24,19.56Zm-.962-.893a.437.437,0,0,0-.4-.387c-.16-.018-.272.074-.244.245a.454.454,0,0,0,.415.387C4.2,18.933,4.276,18.83,4.278,18.667Zm-1.09-.738c.151.017.194-.085.185-.318a.357.357,0,0,0-.327-.307.19.19,0,0,0-.219.235.41.41,0,0,0,.364.39Zm-.721-.987c.129.022.228-.034.218-.181a.372.372,0,0,0-.321-.341c-.111.007-.2.068-.2.179a.341.341,0,0,0,.307.343Zm-.681-.714c.1,0,.168-.047.159-.191-.028-.132-.141-.183-.287-.185-.095,0-.2.021-.185.136a.291.291,0,0,0,.315.24Z" transform="translate(0 0.008)" fill="#fff"/>
      <path id="Path_42" data-name="Path 42" d="M110.125,280.11c.158,0,.347.041.326.251-.024.237-.236.265-.386.29-.2-.009-.354-.068-.332-.249A.346.346,0,0,1,110.125,280.11Z" transform="translate(-102.256 -261.029)" fill="#0f0d0d"/>
      <path id="Path_43" data-name="Path 43" d="M90.884,282.75c.175,0,.368.036.352.262s-.2.234-.394.234c-.166,0-.354-.019-.341-.254C90.519,282.775,90.712,282.75,90.884,282.75Z" transform="translate(-84.336 -263.489)" fill="#0f0d0d"/>
      <path id="Path_44" data-name="Path 44" d="M70.878,279.635c.021.174-.118.24-.263.235-.2-.005-.43-.037-.46-.295-.021-.189.147-.225.313-.245C70.653,279.354,70.849,279.4,70.878,279.635Z" transform="translate(-65.375 -260.302)" fill="#0f0d0d"/>
      <path id="Path_45" data-name="Path 45" d="M53.6,268.44a.437.437,0,0,1,.4.387c0,.164-.076.266-.226.245a.454.454,0,0,1-.415-.387C53.33,268.515,53.44,268.423,53.6,268.44Z" transform="translate(-49.719 -250.152)" fill="#0f0d0d"/>
      <path id="Path_46" data-name="Path 46" d="M42.044,254.415c.01.233-.034.335-.185.318a.4.4,0,0,1-.361-.39.19.19,0,0,1,.219-.235A.357.357,0,0,1,42.044,254.415Z" transform="translate(-38.669 -236.797)" fill="#0f0d0d"/>
      <path id="Path_47" data-name="Path 47" d="M32.261,241.454c.01.147-.089.2-.218.181a.341.341,0,0,1-.3-.346c0-.11.091-.172.2-.179A.379.379,0,0,1,32.261,241.454Z" transform="translate(-29.576 -224.686)" fill="#0f0d0d"/>
      <path id="Path_48" data-name="Path 48" d="M22.081,233c.01.144-.056.194-.159.191a.287.287,0,0,1-.313-.24c-.016-.114.091-.136.185-.136C21.94,232.813,22.053,232.864,22.081,233Z" transform="translate(-20.135 -216.951)" fill="#0f0d0d"/>
    </g>
  </g>
</svg>
