<svg xmlns="http://www.w3.org/2000/svg" width="21.152" height="17.156" viewBox="0 0 21.152 17.156">
  <path id="Path_39" data-name="Path 39" d="M44.7,19.156A12.229,12.229,0,0,0,57.036,6.818V6.23A9.552,9.552,0,0,0,59.152,4a9.755,9.755,0,0,1-2.468.705,4.572,4.572,0,0,0,1.88-2.35,10.778,10.778,0,0,1-2.7,1.058A4.2,4.2,0,0,0,52.689,2a4.415,4.415,0,0,0-4.348,4.348,2.291,2.291,0,0,0,.117.94,12.149,12.149,0,0,1-8.931-4.583,4.5,4.5,0,0,0-.588,2.233A4.669,4.669,0,0,0,40.82,8.58a3.961,3.961,0,0,1-2-.588h0a4.3,4.3,0,0,0,3.525,4.23,3.623,3.623,0,0,1-1.175.118,2,2,0,0,1-.823-.118,4.452,4.452,0,0,0,4.113,3.055,8.872,8.872,0,0,1-5.405,1.88A3.253,3.253,0,0,1,38,17.041a11.091,11.091,0,0,0,6.7,2.115" transform="translate(-38 -2)" fill="#fff" fill-rule="evenodd"/>
</svg>
