<svg xmlns="http://www.w3.org/2000/svg" width="26.569" height="21.551" viewBox="0 0 26.569 21.551">
  <path id="Path_39" data-name="Path 39" d="M46.414,23.551c10.037,0,15.5-8.266,15.5-15.5V7.314a12,12,0,0,0,2.657-2.8,12.253,12.253,0,0,1-3.1.886,5.743,5.743,0,0,0,2.362-2.952,13.539,13.539,0,0,1-3.395,1.328A5.272,5.272,0,0,0,56.451,2a5.546,5.546,0,0,0-5.461,5.461,2.878,2.878,0,0,0,.148,1.181A15.261,15.261,0,0,1,39.919,2.886a5.653,5.653,0,0,0-.738,2.8,5.865,5.865,0,0,0,2.362,4.576,4.976,4.976,0,0,1-2.509-.738h0a5.4,5.4,0,0,0,4.428,5.314,4.551,4.551,0,0,1-1.476.148,2.512,2.512,0,0,1-1.033-.148,5.592,5.592,0,0,0,5.166,3.838,11.145,11.145,0,0,1-6.79,2.362A4.087,4.087,0,0,1,38,20.894a13.932,13.932,0,0,0,8.414,2.657" transform="translate(-38 -2)" fill="#fff" fill-rule="evenodd"/>
</svg>
