<svg xmlns="http://www.w3.org/2000/svg" width="17.194" height="17.156" viewBox="0 0 17.194 17.156">
  <g id="XMLID_801_" transform="translate(0 -0.341)">
    <path id="XMLID_802_" d="M8.656,99.73H5.2a.277.277,0,0,0-.277.277V111.1a.277.277,0,0,0,.277.277H8.656a.277.277,0,0,0,.277-.277V100.007A.277.277,0,0,0,8.656,99.73Z" transform="translate(-4.654 -93.876)" fill="#fff"/>
    <path id="XMLID_803_" d="M2.278.341A2.276,2.276,0,1,0,4.554,2.616,2.279,2.279,0,0,0,2.278.341Z" transform="translate(0 0)" fill="#fff"/>
    <path id="XMLID_804_" d="M113.069,94.761a4.054,4.054,0,0,0-3.033,1.273v-.72a.277.277,0,0,0-.277-.277h-3.306a.277.277,0,0,0-.277.277V106.4a.277.277,0,0,0,.277.277H109.9a.277.277,0,0,0,.277-.277v-5.486c0-1.849.5-2.569,1.791-2.569,1.4,0,1.515,1.155,1.515,2.664V106.4a.277.277,0,0,0,.277.277H117.2a.277.277,0,0,0,.277-.277V100.32C117.481,97.571,116.957,94.761,113.069,94.761Z" transform="translate(-100.287 -89.183)" fill="#fff"/>
  </g>
</svg>
