<svg xmlns="http://www.w3.org/2000/svg" width="240.796" height="180.597" viewBox="0 0 240.796 180.597">
  <path id="envelope-solid" d="M236.234,123.635a2.831,2.831,0,0,1,4.562,2.21v96.177A22.58,22.58,0,0,1,218.221,244.6H22.575A22.58,22.58,0,0,1,0,222.022v-96.13a2.813,2.813,0,0,1,4.562-2.21c10.535,8.183,24.5,18.577,72.474,53.427,9.923,7.243,26.666,22.481,43.362,22.387,16.79.141,33.862-15.426,43.409-22.387C211.778,142.259,225.7,131.818,236.234,123.635ZM120.4,184.4c10.911.188,26.619-13.733,34.52-19.471,62.409-45.29,67.16-49.241,81.551-60.528A11.254,11.254,0,0,0,240.8,95.51V86.575A22.58,22.58,0,0,0,218.221,64H22.575A22.58,22.58,0,0,0,0,86.575V95.51A11.323,11.323,0,0,0,4.327,104.4c14.391,11.24,19.141,15.238,81.551,60.528,7.9,5.738,23.609,19.659,34.52,19.471Z" transform="translate(0 -64)"/>
</svg>
