<svg xmlns="http://www.w3.org/2000/svg" width="17.194" height="17.156" viewBox="0 0 17.156 17.156">
  <path id="Path_40" data-name="Path 40" d="M8.578,1.525a26.3,26.3,0,0,1,3.431.1,4.421,4.421,0,0,1,1.62.286,3.347,3.347,0,0,1,1.62,1.62,4.421,4.421,0,0,1,.286,1.62c0,.858.1,1.144.1,3.431a26.3,26.3,0,0,1-.1,3.431,4.421,4.421,0,0,1-.286,1.62,3.347,3.347,0,0,1-1.62,1.62,4.421,4.421,0,0,1-1.62.286c-.858,0-1.144.1-3.431.1a26.3,26.3,0,0,1-3.431-.1,4.421,4.421,0,0,1-1.62-.286,3.347,3.347,0,0,1-1.62-1.62,4.421,4.421,0,0,1-.286-1.62c0-.858-.1-1.144-.1-3.431a26.3,26.3,0,0,1,.1-3.431,4.421,4.421,0,0,1,.286-1.62,3.423,3.423,0,0,1,.667-.953,1.611,1.611,0,0,1,.953-.667,4.421,4.421,0,0,1,1.62-.286,26.3,26.3,0,0,1,3.431-.1M8.578,0A28.162,28.162,0,0,0,5.052.1a5.884,5.884,0,0,0-2.1.381A3.731,3.731,0,0,0,1.43,1.43,3.731,3.731,0,0,0,.477,2.955,4.343,4.343,0,0,0,.1,5.052,28.162,28.162,0,0,0,0,8.578,28.162,28.162,0,0,0,.1,12.1a5.884,5.884,0,0,0,.381,2.1,3.731,3.731,0,0,0,.953,1.525,3.731,3.731,0,0,0,1.525.953,5.884,5.884,0,0,0,2.1.381,28.162,28.162,0,0,0,3.527.1,28.162,28.162,0,0,0,3.527-.1,5.884,5.884,0,0,0,2.1-.381A4,4,0,0,0,16.68,14.2a5.884,5.884,0,0,0,.381-2.1c0-.953.1-1.239.1-3.527a28.162,28.162,0,0,0-.1-3.527,5.884,5.884,0,0,0-.381-2.1,3.731,3.731,0,0,0-.953-1.525A3.731,3.731,0,0,0,14.2.477,5.884,5.884,0,0,0,12.1.1,28.162,28.162,0,0,0,8.578,0m0,4.194A4.314,4.314,0,0,0,4.194,8.578,4.384,4.384,0,1,0,8.578,4.194m0,7.244A2.808,2.808,0,0,1,5.719,8.578,2.808,2.808,0,0,1,8.578,5.719a2.808,2.808,0,0,1,2.859,2.859,2.808,2.808,0,0,1-2.859,2.859m4.575-8.483A1.048,1.048,0,1,0,14.2,4a1.058,1.058,0,0,0-1.048-1.048" fill="#fff" fill-rule="evenodd"/>
</svg>
