<svg xmlns="http://www.w3.org/2000/svg" viewBox="0 0 326.04 325.69"><defs><style>.cls-1{fill:#afd466;}.cls-2{fill:#d3d4d4;}.cls-3{fill:#f6e225;}.cls-4{fill:#66bca6;}.cls-5{fill:#927115;}.cls-6{fill:#5f5d5b;}.cls-7{fill:#a1a1a1;}.cls-8{fill:#c3c3c3;}.cls-9{fill:#eab81e;}.cls-10{fill:#2aa4d5;}.cls-11{fill:#1a6a8c;}.cls-12{fill:#7c7c7c;}.cls-13{fill:#949595;}.cls-14{fill:#f39c1f;}.cls-15{fill:#afafaf;}</style></defs><g id="Layer_2" data-name="Layer 2"><g id="Layer_1-2" data-name="Layer 1"><path class="cls-1" d="M78.38,117.77c-2.13.87-1.39,2.77-1.45,4.29-.15,4.61-.17,9.23-.24,13.84-8.6-.76-17.1,1.63-25.71.89-2.32-.2-3.15.89-3.24,3.21-.19,5.31,1.95,10.13,3,15.17.71,3.3,2.82,7.14,1.08,9.75s-5-.22-7.57-1.12a4.53,4.53,0,0,0-1.48-.11c-12.09,0-24.18.06-36.27-.05-2.92,0-3.69,1.19-3.62,3.86.1,3.8-.11,7.61-.19,11.41l-2.59-.52,0-5.52c.56-.49.48-.92-.09-1.33,0-5.41.4-10.86,0-16.24C-.5,147.6,3.2,140.6,3.15,133c1.07-3.43,2.18-6.83,3-10.35.78-3.32,1.1-7.07,3.69-9.81,9.77,0,19.54-.23,29.3.1,4.47.15,5.78-2.3,6.49-5.75a13.62,13.62,0,0,0,.13-4.46c-.57-4.6,2.21-6.62,6-6.73,10-.3,20-.11,30-.12C80.53,103.18,78,110.24,78.38,117.77Z"/><path class="cls-2" d="M.15,172.87l-.09-1.33C.63,172,.71,172.38.15,172.87Z"/><path class="cls-3" d="M87.86,185.38c-.42.68-.77,1.89-1.27,2-5.72.75-11.42,1.89-17.23,1.22a4.85,4.85,0,0,1-4.07-3.28c-1.06-3.61-4.65-5.47-5.44-10.56-1.31,3.17-1.35,4.88-.66,6.59,2.2,5.44,5.35,10.41,7.35,16,3.52,9.81.61,18.14-10.84,18.32a45.38,45.38,0,0,1-28.21-9.21c-5.86-4.35-11.16-5.87-17.7-2.79a39.63,39.63,0,0,1-5-17.14c-.13-2.19-.21-4.3-2-5.87l-.12-1.7c.08-3.8.29-7.61.19-11.41-.07-2.67.7-3.89,3.62-3.86,12.09.11,24.18.05,36.27.05a4.53,4.53,0,0,1,1.48.11c2.54.9,5.84,3.71,7.57,1.12s-.37-6.45-1.08-9.75c-1.07-5-3.21-9.86-3-15.17.09-2.32.92-3.41,3.24-3.21,8.61.74,17.11-1.65,25.71-.89A132.64,132.64,0,0,0,82,168.85C83.7,174.43,86.94,179.5,87.86,185.38Z"/><path class="cls-4" d="M98.52,63.85c-.46,2.88-3.53,4.24-4.1,7.05a62,62,0,0,0-8.88,16.67c-1,2.89-.84,6.31-3.72,8.35-10,0-20-.18-30,.12-3.78.11-6.56,2.13-6,6.73a13.62,13.62,0,0,1-.13,4.46c-.71,3.45-2,5.9-6.49,5.75-9.76-.33-19.53-.1-29.3-.1.06-4.59,2.05-8.72,3.84-12.67,4-8.91,8.78-17.5,13.24-26.22,2.94-2.43,3.09-7.08,7-8.76,0,1.45-.4,3,1,4.13,1.68,1.3,19.5.79,21-.65a3.6,3.6,0,0,0,.77-1.24c1.48-3.67,4.48-4.58,8-4.49C76,63.25,87.3,62.28,98.52,63.85Z"/><path class="cls-5" d="M90.05,152.84c-1.65,10.44,0,21,2.71,31.3,1.22,4.7,4.35,8.65,4.83,13.56-3-1-4.59-3.52-5.57-6.27-.87-2.45-1.74-4.74-4.16-6.05-.92-5.88-4.16-10.95-5.84-16.53a132.64,132.64,0,0,1-5.33-32.95c.07-4.61.09-9.23.24-13.84.06-1.52-.68-3.42,1.45-4.29a24.08,24.08,0,0,0,15.17-9c.65,3.43-2.1,9,5.23,8.22l-.21,1.7-1.1,1.11c-.93,2.71-2.24,5.36-2.72,8.16C93.31,136.29,91.36,144.54,90.05,152.84Z"/><path class="cls-6" d="M93.55,108.77a24.13,24.13,0,0,1-15.17,9c-.39-7.53,2.15-14.59,3.43-21.85,2.89-2,2.73-5.46,3.73-8.35A61.75,61.75,0,0,1,94.42,70.9c2.08.3,4.19,1,6.23.83,5.23-.4,6.59.69,7,6.37-.38,4.46-3,8-5,11.77C99.33,96,93.2,100.84,93.55,108.77Z"/><path class="cls-7" d="M101.37,13.05c-.24.24-.48.5-.71.76h0C100.89,13.54,101.13,13.29,101.37,13.05Z"/><path class="cls-8" d="M26.94,74c2.94-2.43,3.09-7.08,7-8.76,2.74-1.63,2-5.64,4.88-7.17Z"/><path class="cls-3" d="M19.89,228.53h0v0Z"/><path class="cls-3" d="M19.88,239.41a30.2,30.2,0,0,1,1.39,3.21l1.51,1.81c.08,1,.16,2,.25,2.94,4.2,2.54,5.2,7.55,8.38,11,2.07,2.24,5,4.36,5.46,7.88,1.85.4,2.21,2.47,3.68,3.29,5.81-.36,11.62-.76,17.43-1.06,1.45-.08,2.58-.35,2.78-2-11-7.07-21.22-15.1-29.87-25-3.76-2.88-6.17-6.74-8.11-11-1.43,0-2.79,0-2.92-1.94l-4.51.1a18.74,18.74,0,0,1,1.8,6.69C19.16,236.14,19.65,237.71,19.88,239.41Z"/><path class="cls-1" d="M19.89,228.51v0h0l-4.51.1a2.46,2.46,0,0,1-2.22-1.72c-4.94-15.1-10.56-30-10.3-46.3,1.79,1.57,1.87,3.68,2,5.87a39.63,39.63,0,0,0,5,17.14c.27,3.34,1.81,6.24,3.21,9.18C15.47,218,18.34,223,19.89,228.51Z"/><path class="cls-1" d="M19.84,239.34a.25.25,0,0,1,0,.07c-.23-1.7-.72-3.27-2.73-4.09l.25.5A15.7,15.7,0,0,1,19.84,239.34Z"/><path class="cls-9" d="M19.86,228.51h0v0Z"/><path class="cls-9" d="M127.11,254.65c-4.42,0-8.34-1.56-12.28-3.08-2.93-1.13-6-2.54-9.09-1.87-9.4,2-18.72,3.66-28.4,1.83-9.26-1.75-19.15-1.36-26.34-9.13a11.9,11.9,0,0,0-4.15-2.55c-1.14-.48-3.41-.88-3.45.51-.17,6.58-2.72,1.45-4.09.88-1.82-.76-3.43-2-5.25-2.74-1.12-.45-2.59-1.71-3.59-.33-.46.65.25,2.15.42,3.26-3.76-2.88-6.17-6.74-8.11-11-.16-1.85-1.62-1.78-2.89-2-.2-.69-.41-1.37-.64-2-.16-.47-.33-.94-.5-1.4s-.35-.91-.54-1.36c0,0,0,0,0,0l0-.05c-.16-.39-.33-.78-.5-1.16h0c-.29-.65-.58-1.3-.89-1.94-.91-2-1.9-3.86-2.85-5.79-.32-.64-.63-1.28-.94-1.93-1.4-2.94-2.94-5.84-3.21-9.18,6.54-3.08,11.84-1.56,17.7,2.79a45.38,45.38,0,0,0,28.21,9.21c11.45-.18,14.36-8.51,10.84-18.32-2-5.59-5.15-10.56-7.35-16-.69-1.71-.65-3.42.66-6.59.79,5.09,4.38,6.95,5.44,10.56a4.85,4.85,0,0,0,4.07,3.28c5.81.67,11.51-.47,17.23-1.22.5-.06.85-1.27,1.27-2,2.42,1.31,3.29,3.6,4.16,6.05,1,2.75,2.53,5.23,5.57,6.27a57.72,57.72,0,0,0,6.09,9.78c0,.89.09,1.72,1.17,2h0l-.09.22h0a3.61,3.61,0,0,1-.23.44l-.2.33a4.08,4.08,0,0,1-.31.39c-2.07,2.24-5-1.16-7.31-.32-1.92.7-4.89-1-5.95,1.11-.8,1.65,2.09,2.5,3.06,3.91.54.77.49,1.91,1,2.74,2.48,4.39,8.55,7.09,6.35,13.66,4.52,3.13,7.23,7.92,11,11.77C116.42,248.2,122.13,250.88,127.11,254.65Z"/><path class="cls-10" d="M290,62.05c-2.43-.2-4.65,1.66-7.17.74-4-1.46-8-.81-11.95.32-2.06-.56-4.39-.68-6.13-1.76A92.13,92.13,0,0,0,235.14,49.3c-10.72-2.26-21.39-5.28-32.35-4-6.55.77-13.15,2-19.7,3.33A107.85,107.85,0,0,0,146,63.32c-3.07,2-5.49,5.35-9.62,5.58a7.58,7.58,0,0,1-6.85-2.06c-.1-1.51-1.56-3,.33-4.51,4.45-3.6,8.81-7.32,13.11-11.09,6.78-6,14.82-9.62,23.25-12.29,8-2.54,15.71-6.52,24.5-5.93a8.1,8.1,0,0,0,2.94-.33c6.73-2.13,13.52-3.86,20.66-3.63a15.26,15.26,0,0,0,5.86-.79c1.63-.59,3.45-1.18,3.62-2.95a4.62,4.62,0,0,0-3-4.74c-7.28-2.69-14.23-6.26-22.36-6.36-12.67-.16-24.75,2.17-37,5.43-12.09,3.23-22.8,8.78-33,15.3-11.8,7.54-21.18,18-29.9,28.9C87.3,62.28,76,63.25,64.77,63c-3.57-.09-6.57.82-8,4.49A3.6,3.6,0,0,1,56,68.71c-1.49,1.44-19.31,2-21,.65-1.44-1.11-1-2.68-1-4.13,2.74-1.63,2-5.64,4.88-7.17a2.84,2.84,0,0,0,2.59-1.23c7.43-9.72,17.15-17,26.33-24.87a236,236,0,0,1,32.93-18.15h0c2.54-.89,5.92-.07,7.14-3.58l6.8-1.39c1.68.29,3.18-.36,4.78-.74,7.05-1.67,13.53-5.67,21.11-5.13,1.39.23,2.66.23,3.22-1.43l14.82-.2a11.25,11.25,0,0,0,8.87-.09l12.85.25c1.53,2.76,4.06,1.27,6.19,1.47,8.29.16,15.86,3.49,23.79,5.27C217,9.76,223,13.77,230,14.25a3.36,3.36,0,0,0,1.56,1.81c8.63,5,17.37,9.79,25.8,15.1C270.25,39.29,280,50.86,290,62.05Z"/><path class="cls-11" d="M98.52,63.85c8.72-10.93,18.09-21.36,29.9-28.9,10.22-6.52,20.94-12.07,33-15.3,12.26-3.27,24.33-5.59,37-5.43,8.13.1,15.08,3.67,22.36,6.36a4.65,4.65,0,0,1,3,4.74c-.17,1.77-2,2.36-3.62,2.95a15.48,15.48,0,0,1-5.87.79c-7.14-.23-13.92,1.5-20.65,3.63a8.09,8.09,0,0,1-2.94.32c-8.79-.58-16.5,3.39-24.51,5.94-8.42,2.67-16.46,6.34-23.24,12.28-4.3,3.78-8.66,7.5-13.11,11.1-1.89,1.53-.43,3-.33,4.51-4.34,2.11-8.24,5.13-13,6.3-1.4-1.89-2.07-.26-2.85.62-1.68,1.93-3.33,3.9-6.07,4.34-.38-5.68-1.74-6.77-7-6.37-2,.16-4.15-.53-6.23-.83C95,68.09,98.06,66.73,98.52,63.85Z"/><path class="cls-12" d="M116.67,87.05c-1,3.34-3,6.08-5.07,8.82a73.19,73.19,0,0,0-11,19.9l-.9,1.08V117l-.47,0-.46.08c-7.33.81-4.58-4.79-5.23-8.22-.35-7.93,5.78-12.73,9.07-18.9,2-3.76,4.62-7.31,5-11.77,2.74-.44,4.39-2.41,6.08-4.34.77-.88,1.44-2.51,2.85-.62a10.07,10.07,0,0,1-1,2.75,9.2,9.2,0,0,0-2.09,5.36,5.44,5.44,0,0,0,0,.57c0,.19,0,.37.08.56a5.2,5.2,0,0,0,.2.75,5,5,0,0,0,.29.73,4.92,4.92,0,0,0,.24.45,4.05,4.05,0,0,0,.36.59l.21.29a2.69,2.69,0,0,0,.22.28c.17.21.35.42.54.62s.4.41.62.61Z"/><path class="cls-12" d="M98.56,118.69l-1.09,1.1Z"/><path class="cls-13" d="M107.8,10.23c-1.22,3.51-4.6,2.69-7.14,3.58h0c.24-.27.48-.52.72-.76A8.45,8.45,0,0,1,107.8,10.23Z"/><path class="cls-9" d="M196.35,252.47c-4.24,3.4-9,6.25-12,10.93-1.6.19-3.23-.28-4.76.87a67.34,67.34,0,0,1-16.43,8.7c-12.13,4.73-24.56,7.9-37.57,8.37-6.84.25-13.7-1.12-20.42-1.47-12.38-.66-23.66-3-34.64-8.89-3-1.59-5.62-5-9.72-4.56-11-7.07-21.22-15.1-29.87-25-.17-1.11-.88-2.61-.42-3.26,1-1.38,2.47-.12,3.59.33,1.82.75,3.43,2,5.25,2.74,1.37.57,3.92,5.7,4.09-.88,0-1.39,2.31-1,3.45-.51A11.9,11.9,0,0,1,51,242.4c7.19,7.77,17.08,7.38,26.34,9.13,9.68,1.83,19,.14,28.4-1.83,3.14-.67,6.16.74,9.09,1.87,3.94,1.52,7.86,3.08,12.28,3.08-5-3.77-10.69-6.45-15-10.94-3.72-3.85-6.43-8.64-11-11.77,2.2-6.57-3.87-9.27-6.35-13.66-.47-.83-.42-2-1-2.74-1-1.41-3.86-2.26-3.06-3.91,1.06-2.14,4-.41,5.95-1.11,2.34-.84,5.24,2.56,7.31.32a4.08,4.08,0,0,0,.31-.39l.2-.33a3.61,3.61,0,0,0,.23-.44h0l.09-.22a.05.05,0,0,0,0,0s0,0,0,0h0c3,1.24,4,4.7,6.79,6.24.92,5,5.82,5.24,8.94,7.63,8.31,6.38,17.75,10.3,27.84,12.82,4.28.93,8.84.3,12.94,2.25h0c.15,2.36,2.08,2.61,3.75,3.3,3.46,1.42,7.42,1.55,10.47,4a16.46,16.46,0,0,0,12.83,3.88C191.61,249.1,194.35,249.83,196.35,252.47Z"/><path class="cls-9" d="M65.68,292.4h0l0,0Z"/><path class="cls-3" d="M226.35,265.51a38.23,38.23,0,0,1-9.21,11.75c-5.23,4.72-9.92,10.19-16.52,13.22a1.78,1.78,0,0,0-2.28,1.74,1.9,1.9,0,0,1-.78.22,26.94,26.94,0,0,0-8.29-1.11q-54.66.07-109.32,0a69.14,69.14,0,0,0-12.29.63q-.41.06-.81.15c-.38.08-.77.16-1.15.26l-1-.95-1.41-1-1.6.27c-2.06-2.11-3.73-4.73-7-5.26-3.49-6.42-10-10.14-14.17-16,5.81-.36,11.62-.76,17.43-1.06,1.45-.08,2.58-.35,2.78-2,4.1-.48,6.75,3,9.72,4.56,11,5.91,22.26,8.23,34.64,8.89,6.72.35,13.58,1.72,20.42,1.47,13-.47,25.44-3.64,37.57-8.37a67.34,67.34,0,0,0,16.43-8.7c1.53-1.15,3.16-.68,4.76-.87,1.83,2.18,4.33,2.06,6.83,2.06Q208.74,265.46,226.35,265.51Z"/><path class="cls-1" d="M19.85,228.51c1.29.18,2.77.09,2.93,2C21.33,230.51,20,230.43,19.85,228.51Z"/><path class="cls-14" d="M104.85,209.45c-1.08-.25-1.17-1.08-1.17-2A1.8,1.8,0,0,1,104.85,209.45Z"/><path class="cls-11" d="M297.26,88.92a7.27,7.27,0,0,1-4.58-1.32,116.67,116.67,0,0,0-12.43-7.8c-6-3.25-12.4-5.83-18.29-9.27A59.16,59.16,0,0,0,230.81,62c-7.31.08-14.63.24-21.92,0-7.63-.31-14.9,1.78-21.75,4.23A143,143,0,0,0,166,75.84,139,139,0,0,0,149.1,86.63c-.8.61-1.74,1.11-1.23,2.35.39,1,1.3.9,2.11.94a9.29,9.29,0,0,0,3,0c7.93-2.41,15.78.33,23.67.22,1.82,0,3.27.49,4,2.32a80.84,80.84,0,0,0-37.16.6A59.31,59.31,0,0,0,122,102.86c-6.58,5-12.28,10.84-18.36,16.32-1.73,1.56-1.7,5.77-3.91,4.87-2.48-1,1-4.28,0-6.6a1.34,1.34,0,0,1,0-.49v-.11l.9-1.08a73.19,73.19,0,0,1,11-19.9c2.06-2.74,4.06-5.48,5.07-8.82h0c7.82-4.7,12.71-12.59,19.75-18.14,4.13-.23,6.55-3.6,9.62-5.58a107.85,107.85,0,0,1,37.05-14.69c6.55-1.35,13.15-2.56,19.7-3.33,11-1.28,21.63,1.74,32.35,4a92.13,92.13,0,0,1,29.61,12.05c1.74,1.08,4.07,1.2,6.13,1.76a62.54,62.54,0,0,0,10.43,9C287.76,76.53,293.67,81.69,297.26,88.92Z"/><path class="cls-4" d="M310.06,94.92c-2,.22-3.67.92-4.27,3.09-2.19-.35-2.87-2.3-4.15-3.69-1.6-1.71-1.56-4.74-4.38-5.4-3.59-7.23-9.5-12.39-15.95-16.79a62.54,62.54,0,0,1-10.43-9c4-1.13,7.93-1.78,11.95-.32,2.52.92,4.74-.94,7.17-.74,5.11,7.23,11.62,13.48,15.06,21.86C306.78,87.56,310.07,90.49,310.06,94.92Z"/><path class="cls-4" d="M136.42,68.9c-7,5.55-11.93,13.44-19.76,18.14-4-3.37-4.08-7.07-1.08-11.15a10.06,10.06,0,0,0,1-2.75c4.79-1.17,8.69-4.19,13-6.3A7.61,7.61,0,0,0,136.42,68.9Z"/><path class="cls-4" d="M167.4,1.25a11.25,11.25,0,0,1-8.87.09C161.47-.53,164.43-.33,167.4,1.25Z"/><path class="cls-4" d="M186.44,3c-2.13-.2-4.66,1.29-6.19-1.47C182.4,1.63,185-.17,186.44,3Z"/><path class="cls-4" d="M143.71,1.53h0c-.56,1.66-1.83,1.66-3.22,1.43C140.9,1,142.24,1.12,143.71,1.53Z"/><path class="cls-10" d="M305.79,98c-2.19-.35-2.87-2.3-4.15-3.69-1.6-1.71-1.56-4.74-4.38-5.4a7.27,7.27,0,0,1-4.58-1.32,116.67,116.67,0,0,0-12.43-7.8c-6-3.25-12.4-5.83-18.29-9.27A59.16,59.16,0,0,0,230.81,62c-7.31.08-14.63.24-21.92,0-7.63-.31-14.9,1.78-21.75,4.23A143,143,0,0,0,166,75.84,139,139,0,0,0,149.1,86.63c-.8.61-1.74,1.11-1.23,2.35.39,1,1.3.9,2.11.94a9.29,9.29,0,0,0,3,0c7.93-2.41,15.78.33,23.67.22,1.82,0,3.27.49,4,2.32l3.63-.08c2.32-.73,3.65.14,4.05,2.5,6.65,1.88,12.92,4.45,17.59,9.86a40.45,40.45,0,0,1,10.7,7.91q1.54,1.58,2.94,3.32c.31.38.61.78.91,1.17.89,1.19,1.74,2.44,2.55,3.73h0a4.52,4.52,0,0,1,.89.7,4.59,4.59,0,0,1,.66.81,6.67,6.67,0,0,1,.81,3.39c.62,1,1.28,2,1.92,3a9.15,9.15,0,0,1,1.28,2.1,21.54,21.54,0,0,1,2.84,7,.61.61,0,0,1,0,.56c1.85.47,1.92,1.87,1.76,3.39a50.18,50.18,0,0,1,4.23,22,4.47,4.47,0,0,1,.33.7c0,.05-.21.18-.32.28,0,.64,0,1.29,0,1.93a29.68,29.68,0,0,0,4.43-.1c2.43-.42,3.8-1.63,3-4.48-1-3.93-1.89-7.91-2.67-11.9-1-5.28,1.22-7.29,6.56-5.54,3.55,1.15,7.09,1.19,10.71,1.18,1.52,0,2.53-.53,2.9-2.06q-3.6-5.58-7.21-11.17-8.07-7.86-16.12-15.72a2.51,2.51,0,0,1-.57-2.76c.43-1.28,1.44-1.07,2.45-.84,5.33,1.2,11.32-.35,15.91,4.14.81.8,2.86.41,4.34.42,12.29,0,24.57,0,36.85,0,3.9,0,7.77-1.08,11.73-.09,1.64.41,3.79.57,4.42-2C312.63,109.29,308.73,103.88,305.79,98Z"/><path class="cls-12" d="M216.59,112.63q1.54,1.58,2.94,3.32C218.6,114.79,217.62,113.69,216.59,112.63Z"/><path class="cls-12" d="M223,120.85h0c-.81-1.29-1.66-2.54-2.55-3.73C221.34,118.31,222.2,119.56,223,120.85Z"/><path class="cls-11" d="M188.3,94.86c-1.94.13-3.88.25-4.05-2.5C186.57,91.63,187.9,92.5,188.3,94.86Z"/><path class="cls-6" d="M100.61,115.77l-.9,1.08Z"/><path class="cls-6" d="M86.93,308.06a5,5,0,0,1-.19-.74h0A6.69,6.69,0,0,0,86.93,308.06Z"/><path class="cls-12" d="M86.75,307.32a6.69,6.69,0,0,0,.18.74,5,5,0,0,1-.19-.74Z"/><path class="cls-13" d="M224.55,122.36a4.59,4.59,0,0,0-.66-.81A3.9,3.9,0,0,1,224.55,122.36Z"/><path class="cls-3" d="M226.35,265.51q-17.61,0-35.22-.05c-2.5,0-5,.12-6.83-2.06,3.07-4.68,7.8-7.53,12-10.93,2.26-.75,3.73-2.42,5.16-4.24,5.34-6.8,12-12.5,16.78-19.76,2.15,1.78,4.7,2,7.35,2,6.21,0,12.43.07,18.64.1a34.47,34.47,0,0,1-.73,4.34c-3.2,10.51-9.56,19.35-15.23,28.55-1.34,0-2,.67-2,2Z"/><path class="cls-9" d="M218.42,225.79c0,.89-.08,1.79-.13,2.68-4.81,7.26-11.44,13-16.78,19.76-1.42,1.82-2.89,3.49-5.16,4.24-2-2.64-4.74-3.37-7.87-3a16.46,16.46,0,0,1-12.83-3.88c-3.05-2.46-7-2.59-10.47-4-1.67-.69-3.6-.94-3.75-3.3A76.26,76.26,0,0,0,195.07,230c.36-.19.5-.83.74-1.26,6.42-.3,9.38-7,15.24-8.31,1.43.2,2.92.76,4.28.53C220.38,220.13,219.62,222.76,218.42,225.79Z"/><path class="cls-5" d="M290.78,254.18a9,9,0,0,0,.35,9.36c-4.58,7-10.43,12.93-16.51,18.57-15,13.89-31.77,25.09-51,32.3-18.46,6.92-37.14,12.58-57.29,11-10.07-.78-20.2.49-30.3-1.13-10.37-1.66-20.1-5.37-29.94-8.68-6.62-2.23-12.89-5.49-19.33-8.3h0l-.13-.07a5.05,5.05,0,0,0-.51-.28l-.69-.31c-.23-.1-.47-.2-.69-.31s-.44-.22-.65-.34a2.79,2.79,0,0,1-1.47-2.6,8.19,8.19,0,0,1,4.38.43,109.85,109.85,0,0,0,17.41,6c14.26,3.44,28.64,2.58,43,2.14a61.25,61.25,0,0,0,18-3.22c8.27-2.86,16.23-6.72,24.12-10.56,2.92-1.43,6.71-2.07,8.1-5.79a1.9,1.9,0,0,0,.78-.22,2,2,0,0,0,2.28-1.74c6.6-3,11.29-8.5,16.52-13.22a38.23,38.23,0,0,0,9.21-11.75c1.37,0,2-.72,2-2,5.67-9.2,12-18,15.23-28.55a32.76,32.76,0,0,0,.73-4.34c.54-.33,1.46-.57,1.56-1,1.58-7.29,3.06-14.6,4.57-21.91l9.72-.31c.46,3.53,2.59,1,4,1.11a4.41,4.41,0,0,0,0,1.66c0,.13.05.27.08.4s0,0,0,0,.07.28.11.41c.41,1.4,1.17,2.74,1.4,3.86,0,.1,0,.19,0,.29s0,.21,0,.31a1.7,1.7,0,0,1-.18.8c-2,3.85-1.07,7.61-1.44,11.38-2.44.23-3.73,1.39-4.21,4a16,16,0,0,1-1.69,5.07c-4.56,8.11-5.26,17.46-8,26.15-2.9.11-1.78,2.12-1.72,3.63l-.27.32c-4.3,1.81-4.31,6.66-6.45,9.93-1.65,2.52-5.31,4.74-4.33,8.76l-.15.16a3.05,3.05,0,0,0-3.31,1.7c-6.18,9.61-16.15,15-24.54,22.15a63.58,63.58,0,0,1-17.67,10.83c2.23,1,4.14.73,6.23.12,5.5-1.58,10.65-4,15.95-6,10.46-4.08,18.84-11.05,27.27-18.05a79.25,79.25,0,0,0,13.25-13.15c4.35-5.23,8.49-10.59,11.37-16.81a20.17,20.17,0,0,1,1-2.2c7-11.16,11.61-23.1,12.39-36.36,1.26-1.57.78-3.45.92-5.21q.67-9,1.34-18.08a9.06,9.06,0,0,0,1.69-5q0-.3,0-.6a6.32,6.32,0,0,0-.11-.76,6.4,6.4,0,0,0-.38-1.17,4.71,4.71,0,0,0-.33-.63,4.37,4.37,0,0,0-.31-.44,3.44,3.44,0,0,0-.35-.41,5.35,5.35,0,0,0-.71-.62,2.37,2.37,0,0,0-.33-.22l-.11-.08c-.12-2.57-.23-5.13-.34-7.7,1.18-.72,2.77-2.11,3.57-.21,1.21,2.88,2.69,1,4.15.72-.25,3.62,1.5,4.86,4.92,4.1l.54,21.17c-.13,10.39-.28,20.78-.38,31.18C293,247.43,292.71,250.76,290.78,254.18Z"/><path class="cls-3" d="M197.56,292.44c-1.39,3.72-5.18,4.36-8.1,5.79-7.89,3.84-15.85,7.7-24.12,10.56a61.25,61.25,0,0,1-18,3.22c-14.35.44-28.73,1.3-43-2.14a109.85,109.85,0,0,1-17.41-6,8.19,8.19,0,0,0-4.38-.43l.05,0c0-2.22-1.61-2-3.05-2-4-3-8.58-5-13.11-7h0l-1-.87c.06-.36.13-.71.19-1.06h0c.38-.1.77-.18,1.15-.26s.54-.11.81-.15A69.14,69.14,0,0,1,80,291.35q54.66,0,109.32,0A26.94,26.94,0,0,1,197.56,292.44Z"/><path class="cls-12" d="M65.72,292.41h0c-.06.35-.13.7-.19,1.06-1.89,0-3.44-.53-3.79-2.71l1.6-.27,1.41,1,1,.95Z"/><path class="cls-14" d="M200.62,290.48a2,2,0,0,1-2.28,1.74A1.78,1.78,0,0,1,200.62,290.48Z"/><path class="cls-14" d="M64.71,291.44l-1.41-1Z"/><path class="cls-14" d="M65.71,292.41l-1-1Z"/><path class="cls-1" d="M322.72,198.57c-.59,3.07-.89,6.69-3.54,9.15a8.77,8.77,0,0,1,.46-4.85c.48-1.41-.23-2.13-1.83-2-5.34.44-11.53-.66-12.33,7.46-.09.87-1.53,1.6-2.35,2.4-6.81.11-2.42,6.65-5.08,9.35-1.51-1.8-.93-3.69-.87-5.38.14-3.48-1.72-2.81-3.75-2.08l-.54-21.17c.41-3.51-1-6.65-1.81-10-1.54-6-6.62-11-4.87-17.9,3.79,1.4,3.74-2.82,5.8-4a11.73,11.73,0,0,0,5.88,2.17c6.75.66,13.35-1.5,20.18-.51,3.61.53,6.19-1.28,6.2-6.38,0-5.58-1.39-10.84-2.39-16.08-1.52-7.9-2.87-16.11-7.66-23-1.59-6.5-5.49-11.91-8.43-17.78.6-2.17,2.26-2.87,4.27-3.09l1,1.06.74.91c2.37,9.31,7.28,17.65,9.64,27.06a132.76,132.76,0,0,1,4.33,26.18A204.29,204.29,0,0,1,322.72,198.57Z"/><path class="cls-4" d="M314.22,115.79c4.79,6.93,6.14,15.13,7.65,23,1,5.24,2.4,10.5,2.39,16.08,0,5.1-2.58,6.91-6.19,6.38-6.83-1-13.43,1.17-20.18.51a11.73,11.73,0,0,1-5.88-2.17c-.87-2.24-1.5-4.61-3.69-6.09-2.95-2-5.15-2.45-5.21,2.23a5.11,5.11,0,0,1-5.51-4.13c-1.14-6.56-5.82-10.59-9.79-15-3-3.41-8.09-3.24-12-5.3-.22.42-.43.85-.64,1.28q-8.07-7.86-16.12-15.72a2.53,2.53,0,0,1-.58-2.76c.44-1.28,1.44-1.07,2.46-.84,5.33,1.2,11.32-.35,15.91,4.14.81.8,2.86.41,4.34.41,12.28,0,24.56,0,36.84,0,3.91,0,7.77-1.08,11.74-.09C311.44,118.16,313.59,118.32,314.22,115.79Z"/><path class="cls-4" d="M278.17,179.66c-1.78,4.11-5.4,1.18-8,2.08-5.46,1.73-8-1.51-9.84-5.85a13.63,13.63,0,0,0-.67-1.32c-1.89-3.29-5-1.87-7.59-1.71s-1.75,2.75-1.79,4.39c-.1,5.12,0,10.24,0,15.35-1.31,0-2.62.06-3.92.06-10.88,0-10.88,0-10.95-11,0-1.93.08-3.85.13-5.78.1-.09.18-.17.27-.24s.31-.33.45-.49a4,4,0,0,0,.36-.51,5.28,5.28,0,0,0,.27-.53,4.28,4.28,0,0,0,.17-.46,4.05,4.05,0,0,0,.12-.47,1.8,1.8,0,0,0,.06-.32c0-.14,0-.28.05-.42.17-1.9-.36-4,.19-5.78a29.68,29.68,0,0,0,4.43-.1c2.43-.42,3.8-1.63,3-4.48-1-3.93-1.89-7.91-2.67-11.9-1-5.28,1.22-7.29,6.56-5.54,3.55,1.15,7.09,1.19,10.71,1.18,1.52,0,2.53-.53,2.9-2.06,3.36,2.69,3.46,7.88,7.65,9.93C271.5,162.74,277,170.53,278.17,179.66Z"/><path class="cls-12" d="M270.07,153.68c-4.19-2.05-4.3-7.24-7.65-9.93q-3.6-5.58-7.21-11.17c.21-.43.42-.86.64-1.28,3.87,2.06,8.92,1.89,12,5.3,4,4.45,8.65,8.48,9.79,15a5.11,5.11,0,0,0,5.51,4.13,20.51,20.51,0,0,0,3.1,7.82c-1.76,6.86,3.33,11.91,4.87,17.9.85,3.32,2.21,6.46,1.81,10-3.42.76-5.17-.48-4.92-4.1-.25-1.76-2.34-2.75-1.88-4.88.77-3.62-1.44-6.59-3.39-8.88a17.26,17.26,0,0,1-3.7-8.27c-1.1-5.13-2.55-10.22-7.53-13.22-.63-.37-1.15-1.5-1.82-.27C269.42,152.25,269.91,153.05,270.07,153.68Z"/><path class="cls-15" d="M233.18,141.79c-2.22-.28-1.93-1.86-1.76-3.39C233.27,138.87,233.34,140.27,233.18,141.79Z"/><path class="cls-4" d="M237.74,164.44c0,.05-.21.18-.32.28,0-.33,0-.66,0-1A4.47,4.47,0,0,1,237.74,164.44Z"/><path class="cls-3" d="M319.64,202.87a8.77,8.77,0,0,0-.46,4.85A105.09,105.09,0,0,1,304,244.07c-.75-1.25-1.84-2.44-1.6-4,1.49-9.75-.15-19.56.69-29.32.82-.8,2.26-1.53,2.35-2.4.8-8.12,7-7,12.33-7.46C319.41,200.74,320.12,201.46,319.64,202.87Z"/><path class="cls-9" d="M304,244.07c-3.86,6.79-7.64,13.62-12.91,19.47a9,9,0,0,1-.35-9.36c1.93-3.42,2.24-6.75,2.27-10.37.1-10.4.25-20.79.38-31.18,2-.73,3.89-1.4,3.75,2.08-.06,1.69-.64,3.58.87,5.38,2.66-2.7-1.73-9.24,5.08-9.35-.84,9.76.8,19.57-.69,29.32C302.2,241.63,303.29,242.82,304,244.07Z"/><path class="cls-4" d="M311.8,96.89l-.74-.91Z"/><path class="cls-5" d="M82.65,303.39a2.65,2.65,0,0,1-3.05-2C81,301.4,82.66,301.17,82.65,303.39Z"/><path class="cls-15" d="M218.94,210.88c-.64.67-1.29,1.35-1.95,2h0C217.64,212.23,218.29,211.55,218.94,210.88Z"/><path class="cls-1" d="M250.61,199.66c-.07,2.67-.13,5.34-.2,8-1.51,7.31-3,14.62-4.57,21.91-.1.43-1,.67-1.56,1-6.21,0-12.43-.09-18.64-.1-2.65,0-5.2-.23-7.35-2,.05-.89.09-1.79.13-2.68.94-.26,2.25-.1,2.61-1.15,2.29-6.56,6.49-12.28,8.58-18.8,1.09-3.36,3.84-7.41.6-11.32.85-4.3,3.89-8.08,3.15-12.78l0,0,2-.12c.07,11,.07,11,10.95,11,1.3,0,2.61,0,3.92-.06Q250.42,196.14,250.61,199.66Z"/><path class="cls-9" d="M228.32,263.47c0,1.32-.61,2-2,2C226.29,264.14,227,263.49,228.32,263.47Z"/><path class="cls-3" d="M229.61,205.84c-2.09,6.52-6.29,12.24-8.58,18.8-.36,1.05-1.67.89-2.61,1.15,1.2-3,2-5.66-3.09-4.79-1.36.23-2.85-.33-4.28-.53,1.33-3,4.93-4.29,5.93-7.58.66-.66,1.31-1.34,2-2s1.28-1.36,1.89-2.06a43.1,43.1,0,0,0,8.86-14.07.62.62,0,0,0,.52-.23C233.45,198.43,230.7,202.48,229.61,205.84Z"/><path class="cls-9" d="M250.23,262.8c2.79-8.69,3.49-18,8-26.15a16.14,16.14,0,0,0,1.7-5.07c.48-2.59,1.76-3.75,4.2-4,2.62-.2,3.51,3,6,3-.51,3,1.37,6.66-1.34,9-4.36,3.7-5,8.66-5.59,13.69a11.08,11.08,0,0,1-1.64,4.55c-2.35,4-.71,7.17,4.24,8.52-2.88,6.22-7,11.58-11.37,16.81a78.94,78.94,0,0,1-13.26,13.15c-1.17-2.07,3-7.7-3.94-5.91l-.09-.08c0-1.58.07-3.16.11-4.74l.15-.15c1.24-.2,3,.42,3.56-1,2.44-5.88,7.38-10.75,7.22-17.69l.27-.31C250.73,266,250.05,264.2,250.23,262.8Z"/><path class="cls-1" d="M270.2,230.63c-2.52,0-3.41-3.23-6-3,.38-3.78-.57-7.53,1.45-11.38.94-1.81-2.09-4.86-1.48-7.75-.82-3.91,3-6.25,3.53-8.94,1.21-5.77,3.76-11.6,2.48-17.79,2.62-.9,6.23,2,8-2.08,2.14,2-.18,5.25,2.08,7.19l.33,7.7c.32,3.32.65,6.64,1,10q-.66,9-1.34,18.08c-.13,1.76.35,3.64-.91,5.2-.32-1.09-.54-2.63-2.16-1.57C274.84,227.72,271.86,228.15,270.2,230.63Z"/><path class="cls-12" d="M270.15,181.74c1.28,6.19-1.27,12-2.48,17.79-.56,2.69-4.35,5-3.53,8.94-1.41-.1-3.55,2.43-4-1.11,0-2.8.1-5.6,0-8.39-.08-3.26-2.46-4.7-5.12-5.08-2.88-.41-2.72,2.14-2.89,4.1a1.83,1.83,0,0,1-1.54,1.67l-.36-7.06c0-5.12-.08-10.23,0-15.35,0-1.64-.89-4.21,1.79-4.39s5.7-1.58,7.59,1.71c.24.43.47.87.67,1.32C262.18,180.23,264.69,183.47,270.15,181.74Z"/><path class="cls-14" d="M237.32,285.59c0,1.58-.07,3.16-.11,4.74-.62.14-1.35.15-1.45,1,0,.17.38.57.56.55.83-.09.84-.83,1-1.45,6.93-1.79,2.77,3.84,3.94,5.91-8.43,7-16.81,14-27.26,18.05-5.3,2.07-10.46,4.45-15.95,6-2.09.6-4,.92-6.23-.12a63.81,63.81,0,0,0,17.67-10.83c8.39-7.14,18.36-12.54,24.54-22.15A3.06,3.06,0,0,1,237.32,285.59Z"/><path class="cls-3" d="M270.2,230.63c1.66-2.48,4.64-2.91,6.94-4.41,1.62-1.06,1.84.48,2.16,1.57-.78,13.27-5.43,25.21-12.39,36.37a18.47,18.47,0,0,0-1,2.2c-4.95-1.35-6.59-4.52-4.24-8.52a11.08,11.08,0,0,0,1.64-4.55c.58-5,1.23-10,5.59-13.69C271.57,237.29,269.69,233.64,270.2,230.63Z"/><path class="cls-6" d="M280.25,186.85c-2.26-1.94.06-5.21-2.08-7.19-1.18-9.13-6.67-16.92-8.1-26-.16-.63-.65-1.43-.42-1.84.67-1.23,1.19-.1,1.82.27,5,3,6.43,8.09,7.53,13.22a17.26,17.26,0,0,0,3.7,8.27c1.95,2.29,4.16,5.26,3.39,8.88-.46,2.13,1.63,3.12,1.88,4.88-1.46.31-2.94,2.16-4.16-.72C283,184.74,281.42,186.13,280.25,186.85Z"/><path class="cls-6" d="M250.6,199.66a1.83,1.83,0,0,0,1.54-1.67c.17-2,0-4.51,2.89-4.1,2.66.38,5,1.82,5.12,5.08.07,2.79,0,5.59,0,8.39l-9.71.31C250.47,205,250.54,202.33,250.6,199.66Z"/><path class="cls-14" d="M248.25,266.74c.16,6.94-4.78,11.81-7.22,17.69-.59,1.43-2.32.81-3.56,1-1-4,2.68-6.24,4.33-8.76C243.94,273.41,243.94,268.56,248.25,266.74Z"/><path class="cls-6" d="M281.55,204.51c-.32-3.32-.65-6.64-1-10C283.72,196.41,284.14,200.74,281.55,204.51Z"/><path class="cls-14" d="M250.23,262.8c-.18,1.4.5,3.2-1.71,3.63C248.46,264.92,247.34,262.91,250.23,262.8Z"/><path class="cls-13" d="M286.21,163.59a20.51,20.51,0,0,1-3.1-7.82c.06-4.68,2.26-4.23,5.21-2.23,2.19,1.48,2.82,3.85,3.69,6.09C290,160.76,290,165,286.21,163.59Z"/><path class="cls-8" d="M235.49,175.87l-.12,5.78-2,.12c.41-2.11-1.6-4.92,1.79-6.16Z"/><path class="cls-9" d="M237.3,290.41c-.14.62-.15,1.36-1,1.45-.18,0-.58-.38-.56-.55.1-.83.83-.84,1.45-1Z"/></g></g></svg>