<?xml version="1.0" encoding="utf-8"?>
<!-- Generator: Adobe Illustrator 25.1.0, SVG Export Plug-In . SVG Version: 6.00 Build 0)  -->
<svg version="1.1" id="Layer_1" xmlns="http://www.w3.org/2000/svg" xmlns:xlink="http://www.w3.org/1999/xlink" x="0px" y="0px"
	 viewBox="0 0 259 257" style="enable-background:new 0 0 259 257;" xml:space="preserve">
<style type="text/css">
	.st0{fill:#AFD466;}
	.st1{fill:#D3D4D4;}
	.st2{fill:#F6E225;}
	.st3{fill:#66BCA6;}
	.st4{fill:#927115;}
	.st5{fill:#5F5D5B;}
	.st6{fill:#A1A1A1;}
	.st7{fill:#C3C3C3;}
	.st8{fill:#EAB81E;}
	.st9{fill:#2AA4D5;}
	.st10{fill:#1A6A8C;}
	.st11{fill:#7C7C7C;}
	.st12{fill:#949595;}
	.st13{fill:#F39C1F;}
	.st14{fill:#AFAFAF;}
</style>
<g id="Layer_2_1_">
	<g id="Layer_1-2">
		<path class="st0" d="M67.3,95.8c-1.6,0.6-1,2-1.1,3.1c-0.1,3.4-0.1,6.8-0.2,10.2c-6.3-0.6-12.6,1.2-18.9,0.7
			c-1.7-0.1-2.3,0.7-2.4,2.4c-0.1,3.9,1.4,7.4,2.2,11.1c0.5,2.4,2.1,5.2,0.8,7.2c-1.3,1.9-3.7-0.2-5.6-0.8c-0.4-0.1-0.7-0.1-1.1-0.1
			c-8.9,0-17.8,0-26.6,0c-2.1,0-2.7,0.9-2.7,2.8c0.1,2.8-0.1,5.6-0.1,8.4l-1.9-0.4v-4.1c0.4-0.4,0.4-0.7-0.1-1c0-4,0.3-8,0-11.9
			c-0.4-5.7,2.3-10.8,2.3-16.4c0.8-2.5,1.6-5,2.2-7.6c0.6-2.4,0.8-5.2,2.7-7.2c7.2,0,14.3-0.2,21.5,0.1c3.3,0.1,4.2-1.7,4.8-4.2
			c0.2-1.1,0.2-2.2,0.1-3.3c-0.4-3.4,1.6-4.9,4.4-4.9c7.3-0.2,14.7-0.1,22-0.1C68.9,85,67.1,90.2,67.3,95.8z"/>
		<path class="st1" d="M9.9,136.2l-0.1-1C10.3,135.6,10.3,135.9,9.9,136.2z"/>
		<path class="st2" d="M74.3,145.4c-0.3,0.5-0.6,1.4-0.9,1.5c-4.2,0.6-8.4,1.4-12.7,0.9c-1.4-0.2-2.5-1.1-3-2.4
			c-0.8-2.7-3.4-4-4-7.8c-1,2.3-1,3.6-0.5,4.8c1.6,4,3.9,7.6,5.4,11.7c2.6,7.2,0.4,13.3-8,13.5c-7.5,0.1-14.8-2.3-20.7-6.8
			c-4.3-3.2-8.2-4.3-13-2c-2.2-3.9-3.4-8.2-3.7-12.6c-0.1-1.6-0.2-3.2-1.5-4.3l-0.1-1.2c0.1-2.8,0.2-5.6,0.1-8.4
			c-0.1-2,0.5-2.9,2.7-2.8c8.9,0.1,17.8,0,26.6,0c0.4,0,0.7,0,1.1,0.1c1.9,0.7,4.3,2.7,5.6,0.8c1.3-1.9-0.3-4.7-0.8-7.2
			c-0.8-3.7-2.4-7.2-2.2-11.1c0.1-1.7,0.7-2.5,2.4-2.4c6.3,0.5,12.6-1.2,18.9-0.7c0.3,8.2,1.6,16.3,3.9,24.2
			C71.3,137.4,73.6,141.1,74.3,145.4z"/>
		<path class="st3" d="M82.1,56.2c-0.3,2.1-2.6,3.1-3,5.2c-2.8,3.7-5,7.9-6.5,12.2c-0.7,2.1-0.6,4.6-2.7,6.1c-7.3,0-14.7-0.1-22,0.1
			c-2.8,0.1-4.8,1.6-4.4,4.9c0.1,1.1,0.1,2.2-0.1,3.3c-0.5,2.5-1.5,4.3-4.8,4.2c-7.2-0.2-14.3-0.1-21.5-0.1c0-3.4,1.5-6.4,2.8-9.3
			c2.9-6.5,6.4-12.8,9.7-19.3c2.2-1.8,2.3-5.2,5.1-6.4c0,1.1-0.3,2.2,0.7,3c1.2,1,14.3,0.6,15.4-0.5c0.2-0.3,0.4-0.6,0.6-0.9
			c1.1-2.7,3.3-3.4,5.9-3.3C65.6,55.7,73.9,55,82.1,56.2z"/>
		<path class="st4" d="M75.9,121.5c-1.2,7.7,0,15.4,2,23c0.9,3.5,3.2,6.4,3.5,10c-2.2-0.7-3.4-2.6-4.1-4.6c-0.6-1.8-1.3-3.5-3.1-4.4
			c-0.7-4.3-3.1-8-4.3-12.1c-2.3-7.9-3.6-16-3.9-24.2c0.1-3.4,0.1-6.8,0.2-10.2c0-1.1-0.5-2.5,1.1-3.1c4.4-0.7,8.4-3.1,11.1-6.6
			c0.5,2.5-1.5,6.6,3.8,6l-0.2,1.2l-0.8,0.8c-0.7,2-1.6,3.9-2,6C78.3,109.4,76.9,115.4,75.9,121.5z"/>
		<path class="st5" d="M78.5,89.1c-2.7,3.5-6.7,5.9-11.1,6.6c-0.3-5.5,1.6-10.7,2.5-16c2.1-1.5,2-4,2.7-6.1
			c1.5-4.4,3.7-8.5,6.5-12.2c1.5,0.2,3.1,0.7,4.6,0.6c3.8-0.3,4.8,0.5,5.1,4.7c-0.3,3.3-2.2,5.9-3.7,8.6
			C82.7,79.8,78.2,83.3,78.5,89.1z"/>
		<path class="st6" d="M84.2,18.9c-0.2,0.2-0.4,0.4-0.5,0.6l0,0C83.9,19.2,84.1,19,84.2,18.9z"/>
		<path class="st7" d="M29.6,63.6c2.2-1.8,2.3-5.2,5.1-6.4c2-1.2,1.5-4.1,3.6-5.3L29.6,63.6z"/>
		<path class="st2" d="M24.4,177.1L24.4,177.1L24.4,177.1z"/>
		<path class="st2" d="M24.4,185.1c0.4,0.8,0.7,1.6,1,2.4l1.1,1.3c0.1,0.7,0.1,1.5,0.2,2.2c3.1,1.9,3.8,5.5,6.2,8.1
			c1.5,1.6,3.7,3.2,4,5.8c1.4,0.3,1.6,1.8,2.7,2.4c4.3-0.3,8.5-0.6,12.8-0.8c1.1-0.1,1.9-0.3,2-1.5c-8.1-5.2-15.6-11.1-21.9-18.4
			c-2.8-2.1-4.5-4.9-6-8.1c-1,0-2,0-2.1-1.4l-3.3,0.1c0.7,1.5,1.2,3.2,1.3,4.9C23.9,182.7,24.2,183.8,24.4,185.1z"/>
		<path class="st0" d="M24.4,177.1L24.4,177.1L24.4,177.1l-3.3,0.1c-0.8,0-1.4-0.5-1.6-1.3c-3.6-11.1-7.8-22-7.6-34
			c1.3,1.2,1.4,2.7,1.5,4.3c0.3,4.4,1.5,8.7,3.7,12.6c0.2,2.5,1.3,4.6,2.4,6.7C21.2,169.3,23.3,173,24.4,177.1z"/>
		<path class="st0" d="M24.4,185C24.4,185,24.4,185,24.4,185c-0.2-1.2-0.5-2.3-2-3l0.2,0.4C23.3,183.2,23.9,184.1,24.4,185z"/>
		<path class="st8" d="M24.4,177.1L24.4,177.1L24.4,177.1z"/>
		<path class="st8" d="M103.1,196.3c-3.2,0-6.1-1.1-9-2.3c-2.2-0.8-4.4-1.9-6.7-1.4c-6.9,1.5-13.7,2.7-20.9,1.3
			c-6.8-1.3-14.1-1-19.3-6.7c-0.9-0.8-1.9-1.5-3-1.9c-0.8-0.4-2.5-0.6-2.5,0.4c-0.1,4.8-2,1.1-3,0.6c-1.3-0.6-2.5-1.5-3.9-2
			c-0.8-0.3-1.9-1.3-2.6-0.2c-0.3,0.5,0.2,1.6,0.3,2.4c-2.8-2.1-4.5-4.9-6-8.1c-0.1-1.4-1.2-1.3-2.1-1.5c-0.1-0.5-0.3-1-0.5-1.5
			c-0.1-0.3-0.2-0.7-0.4-1c-0.1-0.3-0.3-0.7-0.4-1l0,0v0c-0.1-0.3-0.2-0.6-0.4-0.9l0,0c-0.2-0.5-0.4-1-0.7-1.4
			c-0.7-1.5-1.4-2.8-2.1-4.3c-0.2-0.5-0.5-0.9-0.7-1.4c-1-2.2-2.2-4.3-2.4-6.7c4.8-2.3,8.7-1.1,13,2c6,4.5,13.2,6.9,20.7,6.8
			c8.4-0.1,10.5-6.2,8-13.5c-1.5-4.1-3.8-7.8-5.4-11.7c-0.5-1.3-0.5-2.5,0.5-4.8c0.6,3.7,3.2,5.1,4,7.8c0.4,1.3,1.6,2.3,3,2.4
			c4.3,0.5,8.5-0.3,12.7-0.9c0.4,0,0.6-0.9,0.9-1.5c1.8,1,2.4,2.6,3.1,4.4c0.7,2,1.9,3.8,4.1,4.6c1.2,2.5,2.7,4.9,4.5,7.2
			c0,0.7,0.1,1.3,0.9,1.5l0,0l-0.1,0.2l0,0c0,0.1-0.1,0.2-0.2,0.3l-0.1,0.2c-0.1,0.1-0.1,0.2-0.2,0.3c-1.5,1.6-3.7-0.9-5.4-0.2
			c-1.4,0.5-3.6-0.7-4.4,0.8c-0.6,1.2,1.5,1.8,2.2,2.9c0.4,0.6,0.4,1.4,0.7,2c1.8,3.2,6.3,5.2,4.7,10c3.3,2.3,5.3,5.8,8.1,8.6
			C95.3,191.5,99.5,193.5,103.1,196.3z"/>
		<path class="st9" d="M222.7,54.8c-1.8-0.1-3.4,1.2-5.3,0.5c-2.9-1.1-5.9-0.6-8.8,0.2c-1.5-0.4-3.2-0.5-4.5-1.3
			c-6.7-4.2-14-7.2-21.7-8.8c-7.9-1.7-15.7-3.9-23.8-2.9c-4.8,0.6-9.7,1.5-14.5,2.4c-9.7,1.9-18.9,5.5-27.2,10.8
			c-2.3,1.5-4,3.9-7.1,4.1c-1.8,0.4-3.7-0.2-5-1.5c-0.1-1.1-1.1-2.2,0.2-3.3c3.3-2.6,6.5-5.4,9.6-8.1c5-4.4,10.9-7.1,17.1-9
			c5.9-1.9,11.5-4.8,18-4.4c0.7,0.1,1.5,0,2.2-0.2c4.9-1.6,9.9-2.8,15.2-2.7c1.5,0.1,2.9-0.1,4.3-0.6c1.2-0.4,2.5-0.9,2.7-2.2
			c0.1-1.5-0.8-2.9-2.2-3.5c-5.3-2-10.4-4.6-16.4-4.7c-9.3-0.1-18.2,1.6-27.2,4c-8.9,2.4-16.7,6.4-24.2,11.2
			c-8.7,5.5-15.6,13.2-22,21.2c-8.3-1.2-16.5-0.4-24.8-0.6c-2.6-0.1-4.8,0.6-5.9,3.3c-0.1,0.3-0.3,0.6-0.6,0.9
			c-1.1,1.1-14.2,1.5-15.4,0.5c-1.1-0.8-0.7-2-0.7-3c2-1.2,1.5-4.1,3.6-5.3c0.8,0.1,1.5-0.3,1.9-0.9c5.5-7.1,12.6-12.5,19.3-18.3
			c7.7-5.1,15.8-9.5,24.2-13.3l0,0c1.9-0.7,4.3-0.1,5.2-2.6l5-1c1.2,0.2,2.3-0.3,3.5-0.5c5.2-1.2,9.9-4.2,15.5-3.8
			c1,0.2,2,0.2,2.4-1l10.9-0.1c2.1,0.9,4.4,0.8,6.5-0.1l9.4,0.2c1.1,2,3,0.9,4.5,1.1c6.1,0.1,11.6,2.6,17.5,3.9
			c4.9,1.1,9.3,4.1,14.5,4.4c0.2,0.6,0.6,1,1.1,1.3c6.3,3.7,12.8,7.2,18.9,11.1C208.2,38.1,215.4,46.6,222.7,54.8z"/>
		<path class="st10" d="M82.1,56.2c6.4-8,13.3-15.7,22-21.2c7.5-4.8,15.4-8.9,24.2-11.2c9-2.4,17.9-4.1,27.2-4
			c6,0.1,11.1,2.7,16.4,4.7c1.4,0.5,2.3,2,2.2,3.5c-0.1,1.3-1.5,1.7-2.7,2.2c-1.4,0.5-2.8,0.7-4.3,0.6c-5.2-0.2-10.2,1.1-15.2,2.7
			c-0.7,0.2-1.4,0.3-2.2,0.2c-6.5-0.4-12.1,2.5-18,4.4c-6.2,2-12.1,4.7-17.1,9c-3.2,2.8-6.4,5.5-9.6,8.1c-1.4,1.1-0.3,2.2-0.2,3.3
			c-3.2,1.5-6.1,3.8-9.5,4.6c-1-1.4-1.5-0.2-2.1,0.5c-1.2,1.4-2.4,2.9-4.5,3.2c-0.3-4.2-1.3-5-5.1-4.7c-1.5,0.1-3-0.4-4.6-0.6
			C79.6,59.3,81.8,58.3,82.1,56.2z"/>
		<path class="st11" d="M95.5,73.2c-0.7,2.5-2.2,4.5-3.7,6.5c-3.4,4.4-6.2,9.3-8.1,14.6L83,95.1v0.1h-0.3l-0.3,0.1
			c-5.4,0.6-3.4-3.5-3.8-6c-0.3-5.8,4.2-9.3,6.7-13.9c1.5-2.8,3.4-5.4,3.7-8.6c2-0.3,3.2-1.8,4.5-3.2c0.6-0.6,1.1-1.8,2.1-0.5
			c-0.1,0.7-0.4,1.4-0.7,2c-0.9,1.1-1.5,2.5-1.5,3.9c0,0.1,0,0.3,0,0.4c0,0.1,0,0.3,0.1,0.4c0,0.2,0.1,0.4,0.1,0.6
			c0.1,0.2,0.1,0.4,0.2,0.5c0.1,0.1,0.1,0.2,0.2,0.3c0.1,0.2,0.2,0.3,0.3,0.4l0.2,0.2c0,0.1,0.1,0.1,0.2,0.2
			c0.1,0.2,0.3,0.3,0.4,0.5s0.3,0.3,0.5,0.4L95.5,73.2z"/>
		<path class="st11" d="M82.2,96.4l-0.8,0.8L82.2,96.4z"/>
		<path class="st12" d="M88.9,16.8c-0.9,2.6-3.4,2-5.2,2.6l0,0c0.2-0.2,0.4-0.4,0.5-0.6C85.4,17.5,87.2,16.8,88.9,16.8z"/>
		<path class="st8" d="M154,194.7c-3.1,2.5-6.6,4.6-8.8,8c-1.2,0.1-2.4-0.2-3.5,0.6c-3.7,2.7-7.8,4.8-12.1,6.4
			c-8.9,3.5-18,5.8-27.6,6.1c-5,0.2-10.1-0.8-15-1.1c-9.1-0.5-17.4-2.2-25.4-6.5c-2.2-1.2-4.1-3.7-7.1-3.3
			c-8.1-5.2-15.6-11.1-21.9-18.4c-0.1-0.8-0.6-1.9-0.3-2.4c0.7-1,1.8-0.1,2.6,0.2c1.3,0.6,2.5,1.5,3.9,2c1,0.4,2.9,4.2,3-0.6
			c0-1,1.7-0.7,2.5-0.4c1.1,0.4,2.1,1.1,3,1.9c5.3,5.7,12.5,5.4,19.3,6.7c7.1,1.3,14,0.1,20.9-1.3c2.3-0.5,4.5,0.5,6.7,1.4
			c2.9,1.1,5.8,2.3,9,2.3c-3.7-2.8-7.8-4.7-11-8c-2.7-2.8-4.7-6.3-8.1-8.6c1.6-4.8-2.8-6.8-4.7-10c-0.3-0.6-0.3-1.5-0.7-2
			c-0.7-1-2.8-1.7-2.2-2.9c0.8-1.6,2.9-0.3,4.4-0.8c1.7-0.6,3.8,1.9,5.4,0.2c0.1-0.1,0.2-0.2,0.2-0.3l0.1-0.2
			c0.1-0.1,0.1-0.2,0.2-0.3l0,0l0.1-0.2l0,0l0,0l0,0c2.2,0.9,2.9,3.5,5,4.6c0.7,3.7,4.3,3.8,6.6,5.6c6.1,4.7,13,7.6,20.4,9.4
			c3.1,0.7,6.5,0.2,9.5,1.7l0,0c0.1,1.7,1.5,1.9,2.8,2.4c2.5,1,5.4,1.1,7.7,2.9c2.6,2.2,6,3.3,9.4,2.8
			C150.5,192.2,152.5,192.7,154,194.7z"/>
		<path class="st8" d="M58,224L58,224L58,224z"/>
		<path class="st2" d="M176,204.2c-1.7,3.3-4,6.2-6.8,8.6c-3.8,3.5-7.3,7.5-12.1,9.7c-0.7-0.2-1.4,0.2-1.6,0.9
			c0,0.1-0.1,0.3-0.1,0.4c-0.2,0.1-0.4,0.1-0.6,0.2c-2-0.6-4-0.9-6.1-0.8c-26.8,0-53.5,0-80.3,0c-3-0.1-6,0-9,0.5
			c-0.2,0-0.4,0.1-0.6,0.1c-0.3,0.1-0.6,0.1-0.8,0.2l-0.7-0.7l-1-0.7l-1.2,0.2c-1.5-1.5-2.7-3.5-5.1-3.9c-2.6-4.7-7.3-7.4-10.4-11.7
			c4.3-0.3,8.5-0.6,12.8-0.8c1.1-0.1,1.9-0.3,2-1.5c3-0.4,5,2.2,7.1,3.3c8.1,4.3,16.3,6,25.4,6.5c4.9,0.3,10,1.3,15,1.1
			c9.5-0.3,18.7-2.7,27.6-6.1c4.3-1.6,8.4-3.7,12.1-6.4c1.1-0.8,2.3-0.5,3.5-0.6c1.3,1.6,3.2,1.5,5,1.5
			C158.7,204.2,167.4,204.2,176,204.2z"/>
		<path class="st0" d="M24.4,177.1c0.9,0.1,2,0.1,2.2,1.5C25.5,178.5,24.5,178.5,24.4,177.1z"/>
		<path class="st13" d="M86.8,163.1c-0.8-0.2-0.9-0.8-0.9-1.5C86.5,161.8,86.9,162.4,86.8,163.1z"/>
		<path class="st10" d="M228.1,74.6c-1.2,0.1-2.4-0.3-3.4-1c-2.9-2.1-6-4-9.1-5.7c-4.4-2.4-9.1-4.3-13.4-6.8
			c-6.9-4.2-14.8-6.3-22.9-6.3c-5.4,0.1-10.7,0.2-16.1,0c-5.6-0.2-10.9,1.3-16,3.1c-5.4,1.9-10.5,4.3-15.5,7.1
			c-4.3,2.3-8.5,5-12.4,7.9c-0.6,0.4-1.3,0.8-0.9,1.7c0.3,0.7,1,0.7,1.5,0.7c0.7,0.1,1.5,0.1,2.2,0c5.8-1.8,11.6,0.2,17.4,0.2
			c1.3,0,2.4,0.4,2.9,1.7c-9-2-18.3-1.8-27.3,0.4c-5.7,1.3-11.1,3.8-15.8,7.2c-4.8,3.7-9,8-13.5,12c-1.3,1.1-1.2,4.2-2.9,3.6
			c-1.8-0.7,0.7-3.1,0-4.8c0-0.1,0-0.2,0-0.4v-0.1l0.7-0.8c1.9-5.3,4.6-10.2,8.1-14.6c1.5-2,3-4,3.7-6.5l0,0
			c5.7-3.5,9.3-9.2,14.5-13.3c3-0.2,4.8-2.6,7.1-4.1c8.3-5.3,17.5-8.9,27.2-10.8c4.8-1,9.7-1.9,14.5-2.4c8.1-0.9,15.9,1.3,23.8,2.9
			c7.7,1.7,15.1,4.7,21.7,8.8c1.3,0.8,3,0.9,4.5,1.3c2.3,2.5,4.9,4.7,7.7,6.6C221.1,65.5,225.4,69.3,228.1,74.6z"/>
		<path class="st3" d="M237.5,79c-1.5,0.2-2.7,0.7-3.1,2.3c-1.6-0.3-2.1-1.7-3-2.7c-1.2-1.3-1.1-3.5-3.2-4c-2.6-5.3-7-9.1-11.7-12.3
			c-2.8-1.9-5.4-4.1-7.7-6.6c2.9-0.8,5.8-1.3,8.8-0.2c1.9,0.7,3.5-0.7,5.3-0.5c3.8,5.3,8.5,9.9,11.1,16.1
			C235,73.6,237.5,75.7,237.5,79z"/>
		<path class="st3" d="M110,59.9c-5.1,4.1-8.8,9.9-14.5,13.3c-2.9-2.5-3-5.2-0.8-8.2c0.3-0.6,0.6-1.3,0.7-2c3.5-0.9,6.4-3.1,9.5-4.6
			C106.3,59.7,108.1,60.2,110,59.9z"/>
		<path class="st3" d="M132.7,10.2c-2.1,0.9-4.4,0.9-6.5,0.1C128.4,8.9,130.5,9,132.7,10.2z"/>
		<path class="st3" d="M146.7,11.5c-1.6-0.1-3.4,0.9-4.5-1.1C143.7,10.5,145.6,9.2,146.7,11.5z"/>
		<path class="st3" d="M115.3,10.4L115.3,10.4c-0.4,1.2-1.3,1.2-2.4,1C113.3,10,114.2,10.1,115.3,10.4z"/>
		<path class="st9" d="M234.3,81.2c-1.6-0.3-2.1-1.7-3-2.7c-1.2-1.3-1.1-3.5-3.2-4c-1.2,0.1-2.4-0.3-3.4-1c-2.9-2.1-6-4-9.1-5.7
			c-4.4-2.4-9.1-4.3-13.4-6.8c-6.9-4.2-14.8-6.3-22.9-6.3c-5.4,0.1-10.7,0.2-16.1,0c-5.6-0.2-10.9,1.3-16,3.1
			c-5.4,1.9-10.5,4.3-15.5,7.1c-4.3,2.3-8.5,5-12.4,7.9c-0.6,0.4-1.3,0.8-0.9,1.7c0.3,0.7,1,0.7,1.5,0.7c0.7,0.1,1.5,0.1,2.2,0
			c5.8-1.8,11.6,0.2,17.4,0.2c1.3,0,2.4,0.4,2.9,1.7l2.7-0.1c1.7-0.5,2.7,0.1,3,1.8c4.9,1.4,9.5,3.3,12.9,7.2
			c2.9,1.5,5.6,3.5,7.9,5.8c0.8,0.8,1.5,1.6,2.2,2.4c0.2,0.3,0.4,0.6,0.7,0.9c0.7,0.9,1.3,1.8,1.9,2.7l0,0c0.2,0.1,0.5,0.3,0.7,0.5
			c0.2,0.2,0.3,0.4,0.5,0.6c0.4,0.8,0.6,1.6,0.6,2.5c0.5,0.7,0.9,1.5,1.4,2.2c0.4,0.5,0.7,1,0.9,1.5c1,1.6,1.7,3.3,2.1,5.1
			c0.1,0.1,0.1,0.3,0,0.4c1.4,0.3,1.4,1.4,1.3,2.5c2.2,5.1,3.3,10.6,3.1,16.2c0.1,0.2,0.2,0.3,0.2,0.5c0,0-0.2,0.1-0.2,0.2
			c0,0.5,0,0.9,0,1.4c1.1,0.1,2.2,0,3.3-0.1c1.8-0.3,2.8-1.2,2.2-3.3c-0.7-2.9-1.4-5.8-2-8.7c-0.7-3.9,0.9-5.4,4.8-4.1
			c2.6,0.8,5.2,0.9,7.9,0.9c1.1,0,1.9-0.4,2.1-1.5c-1.8-2.7-3.5-5.5-5.3-8.2c-4-3.8-7.9-7.7-11.8-11.5c-0.5-0.5-0.7-1.3-0.4-2
			c0.3-0.9,1.1-0.8,1.8-0.6c3.9,0.9,8.3-0.3,11.7,3c0.6,0.6,2.1,0.3,3.2,0.3c9,0,18,0,27.1,0c2.9,0,5.7-0.8,8.6-0.1
			c1.2,0.3,2.8,0.4,3.2-1.5C239.3,89.5,236.5,85.6,234.3,81.2z"/>
		<path class="st11" d="M168.8,92c0.8,0.8,1.5,1.6,2.2,2.4C170.3,93.6,169.6,92.8,168.8,92z"/>
		<path class="st11" d="M173.5,98L173.5,98c-0.6-0.9-1.2-1.9-1.9-2.7C172.3,96.2,172.9,97.1,173.5,98z"/>
		<path class="st10" d="M148.1,78.9c-1.4,0.1-2.8,0.2-3-1.8C146.8,76.6,147.8,77.2,148.1,78.9z"/>
		<path class="st5" d="M83.7,94.3L83,95.1L83.7,94.3z"/>
		<path class="st5" d="M73.6,235.5c-0.1-0.2-0.1-0.4-0.1-0.5l0,0C73.5,235.1,73.6,235.3,73.6,235.5z"/>
		<path class="st11" d="M73.5,234.9c0,0.2,0.1,0.4,0.1,0.5C73.6,235.3,73.5,235.1,73.5,234.9L73.5,234.9z"/>
		<path class="st12" d="M174.7,99.1c-0.1-0.2-0.3-0.4-0.5-0.6C174.4,98.7,174.5,98.9,174.7,99.1z"/>
		<path class="st2" d="M176,204.2c-8.6,0-17.2,0-25.9,0c-1.8,0-3.7,0.1-5-1.5c2.3-3.4,5.7-5.5,8.8-8c1.7-0.6,2.7-1.8,3.8-3.1
			c3.9-5,8.8-9.2,12.3-14.5c1.6,1.3,3.5,1.5,5.4,1.5c4.6,0,9.1,0.1,13.7,0.1c-0.1,1.1-0.3,2.1-0.5,3.2c-2.3,7.7-7,14.2-11.2,21
			C176.4,202.7,175.9,203.2,176,204.2L176,204.2z"/>
		<path class="st8" d="M170.2,175.1c0,0.7-0.1,1.3-0.1,2c-3.5,5.3-8.4,9.5-12.3,14.5c-1,1.3-2.1,2.6-3.8,3.1
			c-1.5-1.9-3.5-2.5-5.8-2.2c-3.4,0.4-6.8-0.6-9.4-2.8c-2.2-1.8-5.1-1.9-7.7-2.9c-1.2-0.5-2.6-0.7-2.8-2.4c8.6-0.1,17-2.2,24.7-6.1
			c0.3-0.1,0.4-0.6,0.5-0.9c4.7-0.2,6.9-5.1,11.2-6.1c1,0.1,2.1,0.6,3.1,0.4C171.6,170.9,171.1,172.8,170.2,175.1z"/>
		<path class="st4" d="M223.3,195.9c-1.2,2.2-1.1,4.8,0.3,6.9c-3.4,5.1-7.7,9.5-12.1,13.6c-11,10.2-23.3,18.4-37.4,23.7
			c-13.6,5.1-27.3,9.2-42.1,8.1c-7.4-0.6-14.8,0.4-22.2-0.8c-7.6-1.2-14.8-3.9-22-6.4c-4.9-1.6-9.5-4-14.2-6.1l0,0l-0.1-0.1
			c-0.1-0.1-0.2-0.1-0.4-0.2l-0.5-0.2c-0.2-0.1-0.3-0.1-0.5-0.2c-0.2-0.1-0.3-0.2-0.5-0.2c-0.7-0.4-1.1-1.1-1.1-1.9
			c1.1-0.2,2.2-0.1,3.2,0.3c4.1,1.8,8.4,3.3,12.8,4.4c10.5,2.5,21,1.9,31.6,1.6c4.5-0.1,9-0.9,13.2-2.4c6.1-2.1,11.9-4.9,17.7-7.8
			c2.1-1,4.9-1.5,5.9-4.3c0.2,0,0.4-0.1,0.6-0.2c0.8,0.1,1.5-0.4,1.7-1.2c0,0,0,0,0,0c4.8-2.2,8.3-6.2,12.1-9.7
			c2.8-2.4,5.1-5.3,6.8-8.6c1,0,1.5-0.5,1.5-1.5c4.2-6.8,8.8-13.2,11.2-21c0.2-1,0.4-2.1,0.5-3.2c0.4-0.2,1.1-0.4,1.1-0.7
			c1.2-5.4,2.2-10.7,3.4-16.1l7.1-0.2c0.3,2.6,1.9,0.7,2.9,0.8c-0.1,0.4-0.1,0.8,0,1.2c0,0.1,0,0.2,0.1,0.3c0,0.1,0,0,0,0
			s0.1,0.2,0.1,0.3c0.3,1,0.9,2,1,2.8c0,0.1,0,0.1,0,0.2c0,0.1,0,0.2,0,0.2c0,0.2,0,0.4-0.1,0.6c-1.5,2.8-0.8,5.6-1.1,8.4
			c-1.8,0.2-2.7,1-3.1,2.9c-0.2,1.3-0.6,2.6-1.2,3.7c-3.3,6-3.9,12.8-5.9,19.2c-2.1,0.1-1.3,1.6-1.3,2.7l-0.2,0.2
			c-3.2,1.3-3.2,4.9-4.7,7.3c-1.2,1.9-3.9,3.5-3.2,6.4l-0.1,0.1c-1-0.2-2,0.3-2.4,1.2c-4.5,7.1-11.9,11-18,16.3c-3.9,3.3-8.2,6-13,8
			c1.6,0.7,3,0.5,4.6,0.1c4-1.2,7.8-2.9,11.7-4.4c7.7-3,13.8-8.1,20-13.3c3.6-2.8,6.9-6.1,9.7-9.7c3.2-3.8,6.2-7.8,8.3-12.3
			c0.2-0.6,0.5-1.1,0.7-1.6c5.1-8.2,8.5-17,9.1-26.7c0.9-1.2,0.6-2.5,0.7-3.8c0.3-4.4,0.7-8.8,1-13.3c0.8-1.1,1.2-2.4,1.2-3.7
			c0-0.1,0-0.3,0-0.4c0-0.2,0-0.4-0.1-0.6c-0.1-0.3-0.2-0.6-0.3-0.9c-0.1-0.2-0.1-0.3-0.2-0.5c-0.1-0.1-0.1-0.2-0.2-0.3
			c-0.1-0.1-0.2-0.2-0.3-0.3c-0.2-0.2-0.3-0.3-0.5-0.5c-0.1-0.1-0.2-0.1-0.2-0.2l-0.1-0.1c-0.1-1.9-0.2-3.8-0.2-5.7
			c0.9-0.5,2-1.5,2.6-0.2c0.9,2.1,2,0.7,3,0.5c-0.2,2.7,1.1,3.6,3.6,3l0.4,15.5c-0.1,7.6-0.2,15.3-0.3,22.9
			C224.9,191,224.7,193.4,223.3,195.9z"/>
		<path class="st2" d="M154.9,224c-1,2.7-3.8,3.2-5.9,4.3c-5.8,2.8-11.6,5.7-17.7,7.8c-4.3,1.4-8.7,2.2-13.2,2.4
			c-10.5,0.3-21.1,1-31.6-1.6c-4.4-1.1-8.7-2.6-12.8-4.4c-1-0.4-2.1-0.5-3.2-0.3h0c0-1.6-1.2-1.5-2.2-1.5c-2.9-2.2-6.3-3.7-9.6-5.1
			l0,0l-0.7-0.6c0-0.3,0.1-0.5,0.1-0.8l0,0c0.3-0.1,0.6-0.1,0.8-0.2c0.3-0.1,0.4-0.1,0.6-0.1c3-0.5,6.1-0.6,9.1-0.6
			c26.8,0,53.5,0,80.3,0C150.9,223.2,152.9,223.4,154.9,224z"/>
		<path class="st11" d="M58.1,224L58.1,224c0,0.3-0.1,0.5-0.1,0.8c-1.4,0-2.5-0.4-2.8-2l1.2-0.2l1,0.7L58.1,224L58.1,224z"/>
		<path class="st13" d="M157.1,222.6c-0.1,0.8-0.8,1.4-1.6,1.3c0,0,0,0,0,0c0-0.7,0.6-1.3,1.3-1.3
			C156.8,222.5,157,222.5,157.1,222.6z"/>
		<path class="st13" d="M57.3,223.3l-1-0.7L57.3,223.3z"/>
		<path class="st13" d="M58,224l-0.7-0.7L58,224z"/>
		<path class="st0" d="M246.8,155.1c-0.4,2.3-0.7,4.9-2.6,6.7c-0.2-1.2-0.1-2.4,0.3-3.6c0.4-1-0.2-1.6-1.3-1.5
			c-3.9,0.3-8.5-0.5-9.1,5.5c-0.1,0.6-1.1,1.2-1.7,1.8c-5,0.1-1.8,4.9-3.7,6.9c-1.1-1.3-0.7-2.7-0.6-4c0.1-2.6-1.3-2.1-2.8-1.5
			l-0.4-15.5c0.3-2.6-0.7-4.9-1.3-7.3c-1.1-4.4-4.9-8.1-3.6-13.1c2.8,1,2.7-2.1,4.3-2.9c1.3,0.9,2.8,1.5,4.3,1.6
			c5,0.5,9.8-1.1,14.8-0.4c2.7,0.4,4.5-0.9,4.6-4.7c0-4.1-1-8-1.8-11.8c-1.1-5.8-2.1-11.8-5.6-16.9c-1.2-4.8-4-8.7-6.2-13.1
			c0.4-1.6,1.7-2.1,3.1-2.3l0.7,0.8l0.5,0.7c1.7,6.8,5.3,13,7.1,19.9c1.7,6.3,2.8,12.7,3.2,19.2
			C249.7,131.4,248.9,143.3,246.8,155.1z"/>
		<path class="st3" d="M240.5,94.3c3.5,5.1,4.5,11.1,5.6,16.9c0.7,3.8,1.8,7.7,1.8,11.8c0,3.7-1.9,5.1-4.5,4.7
			c-5-0.7-9.9,0.9-14.8,0.4c-1.6-0.1-3-0.7-4.3-1.6c-0.6-1.6-1.1-3.4-2.7-4.5c-2.2-1.5-3.8-1.8-3.8,1.6c-1.9,0.2-3.7-1.1-4-3
			c-0.8-4.8-4.3-7.8-7.2-11c-2.2-2.5-5.9-2.4-8.8-3.9c-0.2,0.3-0.3,0.6-0.5,0.9c-4-3.8-7.9-7.7-11.8-11.5c-0.5-0.5-0.7-1.3-0.4-2
			c0.3-0.9,1.1-0.8,1.8-0.6c3.9,0.9,8.3-0.3,11.7,3c0.6,0.6,2.1,0.3,3.2,0.3c9,0,18,0,27,0c2.9,0,5.7-0.8,8.6-0.1
			C238.5,96,240,96.2,240.5,94.3z"/>
		<path class="st3" d="M214,141.2c-1.3,3-4,0.9-5.9,1.5c-4,1.3-5.9-1.1-7.2-4.3c-0.1-0.3-0.3-0.7-0.5-1c-1.4-2.4-3.7-1.4-5.6-1.3
			c-1.9,0.1-1.3,2-1.3,3.2c-0.1,3.8,0,7.5,0,11.3c-1,0-1.9,0-2.9,0c-8,0-8,0-8-8.1c0-1.4,0.1-2.8,0.1-4.2c0.1-0.1,0.1-0.1,0.2-0.2
			c0.1-0.1,0.2-0.2,0.3-0.4c0.1-0.1,0.2-0.2,0.3-0.4c0.1-0.1,0.1-0.3,0.2-0.4c0-0.1,0.1-0.2,0.1-0.3c0-0.1,0.1-0.2,0.1-0.3
			c0-0.1,0-0.2,0-0.2c0-0.1,0-0.2,0-0.3c0.1-1.4-0.3-2.9,0.1-4.2c1.1,0.1,2.2,0,3.3-0.1c1.8-0.3,2.8-1.2,2.2-3.3
			c-0.7-2.9-1.4-5.8-2-8.7c-0.7-3.9,0.9-5.4,4.8-4.1c2.6,0.8,5.2,0.9,7.9,0.9c1.1,0,1.9-0.4,2.1-1.5c2.5,2,2.5,5.8,5.6,7.3
			C209.1,128.8,213.2,134.5,214,141.2z"/>
		<path class="st11" d="M208.1,122.1c-3.1-1.5-3.2-5.3-5.6-7.3c-1.8-2.7-3.5-5.5-5.3-8.2c0.2-0.3,0.3-0.6,0.5-0.9
			c2.8,1.5,6.5,1.4,8.8,3.9c2.9,3.3,6.4,6.2,7.2,11c0.4,1.9,2.1,3.2,4,3c0.4,2.1,1.1,4,2.3,5.7c-1.3,5,2.4,8.7,3.6,13.1
			c0.6,2.4,1.6,4.7,1.3,7.3c-2.5,0.6-3.8-0.4-3.6-3c-0.2-1.3-1.7-2-1.4-3.6c0.6-2.7-1.1-4.8-2.5-6.5c-1.4-1.7-2.4-3.8-2.7-6.1
			c-0.8-3.8-1.9-7.5-5.5-9.7c-0.5-0.3-0.8-1.1-1.3-0.2C207.6,121.1,208,121.7,208.1,122.1z"/>
		<path class="st14" d="M181,113.4c-1.6-0.2-1.4-1.4-1.3-2.5C181.1,111.2,181.1,112.3,181,113.4z"/>
		<path class="st3" d="M184.4,130c0,0-0.2,0.1-0.2,0.2c0-0.2,0-0.5,0-0.7C184.2,129.7,184.3,129.8,184.4,130z"/>
		<path class="st2" d="M244.5,158.2c-0.4,1.1-0.6,2.4-0.3,3.6c-2,9.5-5.8,18.6-11.1,26.7c-0.6-0.9-1.4-1.8-1.2-2.9
			c1.1-7.2-0.1-14.4,0.5-21.5c0.6-0.6,1.7-1.1,1.7-1.8c0.6-6,5.1-5.1,9.1-5.5C244.3,156.7,244.8,157.2,244.5,158.2z"/>
		<path class="st8" d="M233,188.5c-2.8,5-5.6,10-9.5,14.3c-1.4-2.1-1.5-4.7-0.3-6.9c1.4-2.5,1.6-5,1.7-7.6
			c0.1-7.6,0.2-15.3,0.3-22.9c1.5-0.5,2.9-1,2.8,1.5c0,1.2-0.5,2.6,0.6,4c2-2-1.3-6.8,3.7-6.9c-0.6,7.2,0.6,14.4-0.5,21.5
			C231.7,186.7,232.5,187.6,233,188.5z"/>
		<path class="st3" d="M238.7,80.4l-0.5-0.7L238.7,80.4z"/>
		<path class="st4" d="M70.5,232c-1,0.2-2-0.5-2.2-1.5C69.3,230.6,70.5,230.4,70.5,232z"/>
		<path class="st14" d="M170.6,164.1c-0.5,0.5-0.9,1-1.4,1.5l0,0C169.6,165.1,170.1,164.6,170.6,164.1z"/>
		<path class="st0" d="M193.8,155.9c-0.1,2-0.1,3.9-0.1,5.9c-1.1,5.4-2.2,10.7-3.4,16.1c-0.1,0.3-0.7,0.5-1.1,0.7
			c-4.6,0-9.1-0.1-13.7-0.1c-1.9,0-3.8-0.2-5.4-1.5c0-0.7,0.1-1.3,0.1-2c0.7-0.2,1.7-0.1,1.9-0.8c1.7-4.8,4.8-9,6.3-13.8
			c0.8-2.5,2.8-5.4,0.4-8.3c0.6-3.2,2.9-5.9,2.3-9.4l0,0l1.5-0.1c0.1,8.1,0.1,8.1,8,8.1c1,0,1.9,0,2.9,0
			C193.6,152.4,193.7,154.2,193.8,155.9z"/>
		<path class="st8" d="M177.4,202.7c0,1-0.4,1.5-1.5,1.5C175.9,203.2,176.5,202.7,177.4,202.7z"/>
		<path class="st2" d="M178.4,160.4c-1.5,4.8-4.6,9-6.3,13.8c-0.3,0.8-1.2,0.7-1.9,0.8c0.9-2.2,1.5-4.2-2.3-3.5
			c-1,0.2-2.1-0.2-3.1-0.4c1-2.2,3.6-3.1,4.4-5.6c0.5-0.5,1-1,1.5-1.5c0.5-0.5,0.9-1,1.4-1.5c2.8-3,5-6.5,6.5-10.3
			c0.1,0,0.3-0.1,0.4-0.2C181.2,155,179.2,158,178.4,160.4z"/>
		<path class="st8" d="M193.5,202.2c2-6.4,2.6-13.2,5.9-19.2c0.6-1.2,1-2.4,1.2-3.7c0.4-1.9,1.3-2.8,3.1-2.9
			c1.9-0.1,2.6,2.2,4.4,2.2c-0.4,2.2,1,4.9-1,6.6c-3.2,2.7-3.7,6.4-4.1,10.1c-0.2,1.2-0.6,2.3-1.2,3.3c-1.7,2.9-0.5,5.3,3.1,6.3
			c-2.1,4.6-5.1,8.5-8.3,12.3c-2.9,3.6-6.1,6.8-9.7,9.7c-0.9-1.5,2.2-5.7-2.9-4.3l-0.1-0.1c0-1.2,0.1-2.3,0.1-3.5l0.1-0.1
			c0.9-0.1,2.2,0.3,2.6-0.7c1.8-4.3,5.4-7.9,5.3-13l0.2-0.2C193.9,204.6,193.4,203.3,193.5,202.2z"/>
		<path class="st0" d="M208.2,178.6c-1.9,0-2.5-2.4-4.4-2.2c0.3-2.8-0.4-5.5,1.1-8.4c0.7-1.3-1.5-3.6-1.1-5.7
			c-0.6-2.9,2.2-4.6,2.6-6.6c0.9-4.2,2.8-8.5,1.8-13.1c1.9-0.7,4.6,1.5,5.9-1.5c1.6,1.5-0.1,3.9,1.5,5.3l0.2,5.7
			c0.2,2.4,0.5,4.9,0.7,7.3c-0.3,4.4-0.7,8.8-1,13.3c-0.1,1.3,0.3,2.7-0.7,3.8c-0.2-0.8-0.4-1.9-1.6-1.2
			C211.6,176.5,209.4,176.8,208.2,178.6z"/>
		<path class="st11" d="M208.2,142.7c0.9,4.5-0.9,8.8-1.8,13.1c-0.4,2-3.2,3.7-2.6,6.6c-1-0.1-2.6,1.8-2.9-0.8c0-2.1,0.1-4.1,0-6.2
			c-0.1-2.4-1.8-3.5-3.8-3.7c-2.1-0.3-2,1.6-2.1,3c0,0.6-0.5,1.1-1.1,1.2l-0.3-5.2c0-3.8-0.1-7.5,0-11.3c0-1.2-0.7-3.1,1.3-3.2
			c2-0.1,4.2-1.2,5.6,1.3c0.2,0.3,0.3,0.6,0.5,1C202.3,141.6,204.1,144,208.2,142.7z"/>
		<path class="st13" d="M184,219c0,1.2-0.1,2.3-0.1,3.5c-0.5,0.1-1,0.1-1.1,0.7c0,0.1,0.3,0.4,0.4,0.4c0.6-0.1,0.6-0.6,0.7-1.1
			c5.1-1.3,2,2.8,2.9,4.3c-6.2,5.1-12.3,10.3-20,13.3c-3.9,1.5-7.7,3.3-11.7,4.4c-1.5,0.4-2.9,0.7-4.6-0.1c4.7-1.9,9.1-4.6,13-8
			c6.2-5.2,13.5-9.2,18-16.3C182.1,219.3,183.1,218.8,184,219z"/>
		<path class="st2" d="M208.2,178.6c1.2-1.8,3.4-2.1,5.1-3.2c1.2-0.8,1.4,0.4,1.6,1.2c-0.6,9.7-4,18.5-9.1,26.7
			c-0.3,0.5-0.5,1.1-0.7,1.6c-3.6-1-4.8-3.3-3.1-6.3c0.6-1,1.1-2.2,1.2-3.3c0.4-3.7,0.9-7.3,4.1-10.1
			C209.2,183.5,207.8,180.8,208.2,178.6z"/>
		<path class="st5" d="M215.6,146.5c-1.7-1.4,0-3.8-1.5-5.3c-0.9-6.7-4.9-12.4-5.9-19.1c-0.1-0.5-0.5-1-0.3-1.4
			c0.5-0.9,0.9-0.1,1.3,0.2c3.7,2.2,4.7,5.9,5.5,9.7c0.3,2.2,1.3,4.3,2.7,6.1c1.4,1.7,3.1,3.9,2.5,6.5c-0.3,1.6,1.2,2.3,1.4,3.6
			c-1.1,0.2-2.2,1.6-3.1-0.5C217.6,144.9,216.4,145.9,215.6,146.5z"/>
		<path class="st5" d="M193.8,155.9c0.6-0.1,1.1-0.6,1.1-1.2c0.1-1.5,0-3.3,2.1-3c2,0.3,3.7,1.3,3.8,3.7c0.1,2,0,4.1,0,6.2l-7.1,0.2
			C193.7,159.8,193.8,157.8,193.8,155.9z"/>
		<path class="st13" d="M192.1,205.1c0.1,5.1-3.5,8.7-5.3,13c-0.4,1-1.7,0.6-2.6,0.7c-0.7-2.9,2-4.6,3.2-6.4
			C188.9,210,188.9,206.5,192.1,205.1z"/>
		<path class="st5" d="M216.5,159.4c-0.2-2.4-0.5-4.9-0.7-7.3C218.1,153.5,218.4,156.7,216.5,159.4z"/>
		<path class="st13" d="M193.5,202.2c-0.1,1,0.4,2.3-1.3,2.7C192.2,203.8,191.4,202.3,193.5,202.2z"/>
		<path class="st12" d="M219.9,129.4c-1.1-1.7-1.9-3.7-2.3-5.7c0-3.4,1.7-3.1,3.8-1.6c1.6,1.1,2.1,2.8,2.7,4.5
			C222.7,127.3,222.7,130.4,219.9,129.4z"/>
		<path class="st7" d="M182.7,138.4l-0.1,4.2l-1.5,0.1c0.3-1.5-1.2-3.6,1.3-4.5L182.7,138.4z"/>
		<path class="st8" d="M184,222.5c-0.1,0.5-0.1,1-0.7,1.1c-0.1,0-0.4-0.3-0.4-0.4C183,222.6,183.5,222.6,184,222.5L184,222.5z"/>
	</g>
</g>
</svg>
